<svg version="1.2" xmlns="http://www.w3.org/2000/svg" viewBox="0 0 990 990" width="990" height="990">
	<title>four_check_star_mark_circles-ai</title>
	<style>
		.s0 { fill: #2eb758 } 
		.s1 { fill: #ffffff } 
	</style>
	<g id="objects">
		<g id="&lt;Group&gt;">
			<path id="&lt;Path&gt;" class="s0" d="m986.9 495.5l-45.6 58.7 28.9 68.5-59.2 44.9 10.1 73.6-68.9 28-9.3 73.8-73.7 9.3-28 68.8-73.7-10-44.9 59.2-68.5-28.9-58.7 45.5-58.7-45.5-68.5 28.9-44.9-59.2-73.7 10-28-68.8-73.7-9.3-9.3-73.8-68.9-28 10.1-73.6-59.2-44.9 28.9-68.5-45.6-58.7 45.6-58.8-28.9-68.5 59.2-44.9-10.1-73.6 68.9-28 9.3-73.8 73.7-9.3 28-68.8 73.7 10 44.9-59.2 68.5 28.9 58.7-45.5 58.7 45.5 68.5-28.9 44.9 59.2 73.7-10 28 68.8 73.7 9.3 9.3 73.8 68.9 28-10.1 73.6 59.2 44.9-28.9 68.5z"/>
			<path id="&lt;Path&gt;" class="s1" d="m403.7 689.4l-109.8-109.8 41-41 66.6 66.6 253.3-281 43.1 38.8z"/>
		</g>
	</g>
</svg>