<svg version="1.2" xmlns="http://www.w3.org/2000/svg" viewBox="0 0 1000 1000" width="1000" height="1000">
	<title>9264884-ai</title>
	<style>
		tspan { white-space:pre } 
		.s0 { fill: #f5f5ff } 
		.s1 { fill: #dfdfeb } 
		.s2 { fill: #d3ddf7 } 
		.s3 { fill: #7584f1 } 
		.s4 { fill: none;stroke: #000000;stroke-linejoin: round;stroke-width: 2 } 
		.s5 { fill: none;stroke: #000000;stroke-miterlimit:10;stroke-width: 2 } 
		.s6 { fill: #ba6f4c } 
		.s7 { fill: none;stroke: #000000;stroke-linecap: round;stroke-miterlimit:10;stroke-width: 2 } 
		.s8 { fill: #000000 } 
		.s9 { fill: #9ec68a } 
		.s10 { fill: #ffffff } 
		.s11 { fill: none;stroke: #000000;stroke-linecap: round;stroke-linejoin: round;stroke-width: 2 } 
		.s12 { fill: #7e9e6e } 
		.s13 { fill: #545fac } 
		.t14 { font-size: 18px;fill: #000000;font-weight: 300;font-family: "Lexend-Light", "Lexend" } 
	</style>
	<g id="BACKGROUND">
		<path id="&lt;Path&gt;" class="s0" d="m531.5 209.3c145.4 83.1 210.3 275.3 144.9 429.5-65.4 154.1-236.3 211.8-381.7 128.7-145.4-83-210.3-275.3-144.9-429.4 65.4-154.1 236.3-211.8 381.7-128.8z"/>
	</g>
	<g id="OBJECTS">
		<path id="&lt;Path&gt;" class="s1" d="m821 875.6c0 12.5-54.5 22.6-121.8 22.6-67.3 0-121.8-10.1-121.8-22.6 0-12.5 54.5-22.6 121.8-22.6 67.3 0 121.8 10.1 121.8 22.6z"/>
		<g id="&lt;Group&gt;">
			<path id="&lt;Path&gt;" class="s2" d="m575 627.7h-457.2c-11.2 0-20.3-9.1-20.3-20.3v-287.4c0-11.2 9.1-20.3 20.3-20.3h457.2c11.2 0 20.3 9.1 20.3 20.3v287.4c0 11.2-9.1 20.3-20.3 20.3z"/>
			<path id="&lt;Path&gt;" class="s3" d="m575 299.7h-457.2c-11.2 0-20.3 9.1-20.3 20.3v20h497.8v-20c0-11.2-9.1-20.3-20.3-20.3z"/>
			<g id="&lt;Group&gt;">
				<path id="&lt;Path&gt;" class="s4" d="m519.9 320.5c0 4-3.2 7.2-7.2 7.2-3.9 0-7.2-3.2-7.2-7.2 0-4 3.3-7.2 7.2-7.2 4 0 7.2 3.2 7.2 7.2z"/>
				<path id="&lt;Path&gt;" class="s4" d="m546.8 320.5c0 4-3.2 7.2-7.2 7.2-3.9 0-7.2-3.2-7.2-7.2 0-4 3.3-7.2 7.2-7.2 4 0 7.2 3.2 7.2 7.2z"/>
				<path id="&lt;Path&gt;" class="s4" d="m573.7 320.5c0 4-3.2 7.2-7.2 7.2-3.9 0-7.2-3.2-7.2-7.2 0-4 3.3-7.2 7.2-7.2 4 0 7.2 3.2 7.2 7.2z"/>
			</g>
			<g id="&lt;Group&gt;">
				<g id="&lt;Group&gt;">
					<path id="&lt;Path&gt;" class="s3" d="m301.6 400.3c-5.6 0-11.1-3.8-15.5-7.5l-5.3-4.4c-3.3-2.7-7.2-4.2-11.2-4.2h-45.2c-4.1 0-7.5 3.3-7.5 7.4v8.7 158c0 5.5 4.5 10 10 10h228.4c5.5 0 10-4.5 10-10v-148.1c0-5.5-4.5-9.9-10-9.9z"/>
					<path id="&lt;Path&gt;" class="s5" d="m447.1 432.2h-64.6c-2.9 0-5.2-2.3-5.2-5.2 0-2.9 2.3-5.2 5.2-5.2h64.6c2.9 0 5.2 2.3 5.2 5.2 0 2.9-2.3 5.2-5.2 5.2z"/>
				</g>
			</g>
		</g>
		<g id="&lt;Group&gt;">
			<path id="&lt;Path&gt;" class="s6" d="m832.2 387.8c0 0 11.5 27 13 34.8 4.5 24 26.1 89.9 33.3 98.1 0 0 13.6 1.5 20.4-2.4 0 0-17-107.8-24.2-122.4-7.3-14.6-12.2-38.4-12.2-38.4z"/>
			<g id="&lt;Group&gt;">
				<path id="&lt;Path&gt;" class="s6" d="m897.3 514.5c-7.5-6.2-22.7-2.5-25.4 6.9-2.1 7.7-2.2 12-2.4 13.3-0.4 2.6-9.7 18.4-7.9 21.7 1.3 2.3 7.9-5.1 11.2-10.3 0.7-1 2.3-0.6 2.4 0.6 0.6 7.1 2 21.2 3.2 22.9 1.6 2.4 7.6 12.3 9.3 11.2 1.8-1.1-0.2-8-1.7-12.6-1.6-4.6 0.3-14.9 0.3-14.9 0 0 7.8 23.5 11.1 27.7 5 6.3 6.6-4 6.6-4 3 3.2 5.8-4.4 5.3-6.9-1-4.7-8.4-21.7-7.1-21.1 1.3 0.7 9.7 18.5 13.5 19.1 3.8 0.5 1.9-6-0.2-10.2-2.1-4.3-7.9-16.6-7.9-16.6 0 0-1.9-11.6-9.1-24.2 0-0.1-1.1-2.5-1.2-2.6z"/>
				<path id="&lt;Path&gt;" class="s7" d="m903.8 576.4l-10.2-23.8"/>
			</g>
			<path id="&lt;Path&gt;" class="s8" d="m826.8 342.9l-107.3-4.4v-158.4l56.5-8.2z"/>
			<path id="&lt;Path&gt;" class="s7" d="m774.3 170.6c0 0 21 49.3 39 115.8"/>
			<path id="&lt;Path&gt;" class="s6" d="m584.4 367.4c0 0 25.3 11.3 83.9-32.9l-24.9-27.8z"/>
			<path id="&lt;Path&gt;" class="s9" d="m768.4 255.9c1.1-0.2 7.7 5.9 8.8 6.6 11.2 6.9 20.5 7.9 33.1 10.3 24.9 4.7 42.4 44.3 44.9 52.6 3 9.8 8.2 26.7 11.2 36.4 0 0-4.9 27.3-36.4 26.7l-15.8-33.7c0 0-17.9 40.3-18.9 43.5-1.1 3.2 10.8 42.4 10.8 42.4 0 0-94 36.2-148.7 16.7 0 0 18.6-70.9 13.6-73.2-4.8-2.2-14.6-10.7-2.7-49.7 0 0-19.8-11.6-24.6-42.1 0 0 25.8-23.9 42.1-24.4 16.3-0.6 82.6-12.1 82.6-12.1z"/>
			<path id="&lt;Path&gt;" class="s10" d="m729 283c0 0 6.8 18.1 27.6 7.9 17.1-8.5 22.8-22.3 24.3-26.9-7.2-4.1-12.5-8.1-12.5-8.1 0 0-29.1 5.1-53.5 8.6-1.3 2.8-13.1 28.4 14.1 18.5z"/>
			<path id="&lt;Path&gt;" class="s6" d="m766.6 221.9l1.8 34c0 0-15.8 23.9-34.7 21.3l-3.7-21.6z"/>
			<path id="&lt;Path&gt;" class="s6" d="m734.5 615.1l11.3 142.1 2.5 92.8c0 0 20.4 13.2 31-6.2 0 0 18.9-96.3 16.8-129.4-2.1-33.1 1.6-72.1 1.6-72.1z"/>
			<path id="&lt;Path&gt;" class="s8" d="m654.4 835.8c0 0-57.9 49.8-52.7 49.8 5.2 0 29.8-3.5 45.7-7.4 15.9-3.9 22.3-14 22.3-14l1.2 9.8 11-1.4c0 0 12.4-26.3 3.7-41.1-8.7-14.7-31.2 4.3-31.2 4.3z"/>
			<path id="&lt;Path&gt;" class="s8" d="m662.5 866.6l8.4 7.4 4-12.5-6.5-1.5z"/>
			<path id="&lt;Path&gt;" class="s8" d="m748.2 837.7c0 0-21.6 64.7-14.3 65.5 13.8 1.6 30.7-13.8 35.9-23.6 5.2-9.8 4.6-25.2 4.6-25.2l-4.9 11.5h10.1c0 0 5.5-5.2 1.2-30.5 0 0-32.6 32-32.6 2.3z"/>
			<path id="&lt;Path&gt;" class="s6" d="m658.7 610.5l-4.3 225.3c0 0 19.9 13.6 31.2-4.3 0 0 22.6-90.5 21.7-122-0.8-31.6 4.4-68.4 4.4-68.4z"/>
			<path id="&lt;Path&gt;" class="s8" d="m666.9 414.8c0 0 25.2 46.3 133.6 6.3 0 0 42.1 109.5 9.5 231.5 0 0-92.6 43.2-181-8.4 0 0 14.7-151.5 37.9-229.4z"/>
			<path id="&lt;Path&gt;" class="s6" d="m668.3 260.1c0 0-80.2 56.5-86.2 66.3-5.9 9.8-18.4 32.3-0.8 40.7 17.5 8.4 87.1-68.3 104-94.2z"/>
			<path id="&lt;Path&gt;" class="s7" d="m596 364.3c0 0 25-13.6 54.8-47.7"/>
			<path id="&lt;Path&gt;" class="s7" d="m672.4 385.1c0 0 66.4 31.8 107.4-3.3"/>
			<path id="&lt;Path&gt;" class="s7" d="m814.2 354.8l-14.3-22.4"/>
			<path id="&lt;Path&gt;" class="s7" d="m668.3 334.5l8-16.2"/>
			<path id="&lt;Compound Path&gt;" class="s6" d="m711.4 242.1c-4.5-0.4-8.8 4.3-10.5 3.8-1.3-0.4-3.2-6.9-3.9-9.5 2.6-15.3 0.8-27.1-2.7-23.9-0.2 0.2-0.4 0.5-0.7 1-0.5-4.8-1.9-7.3-3.7-5.6-0.5 0.4-1.3 2.1-1.9 3.9-0.6-4.6-1.9-6.8-3.7-5.2-0.9 0.8-2.4 5.3-3.1 7.4-0.3-0.5-0.9-0.6-1.5-0.9-2.6-0.8-8.5 21.4-8.8 22.6-0.3 1.1-6.6 26-6.6 26-2.3 9.1 15.7 13.2 21 11.2 5.3-2 17.3-15 17.3-15q0-0.1 0-0.1c0.4-0.6 1-1.5 1.9-2.9 1.8-3 11-10.4 11.2-11.1 0.3-0.6 0.3-1.2-4.3-1.7z"/>
			<path id="&lt;Path&gt;" class="s8" d="m715.7 243.8c0.3-0.6 0.3-1.2-4.3-1.7-4.5-0.4-8.8 4.3-10.5 3.8-1.3-0.4-3.2-6.9-3.9-9.5 2.6-15.3 0.8-27.1-2.7-23.9-0.2 0.2-0.4 0.5-0.7 1-0.5-4.8-1.9-7.3-3.7-5.6-0.5 0.4-1.3 2.1-1.9 3.9-0.3-2.2-0.7-3.7-1.3-4.7-0.6 15.5 1.1 39.1 14.9 51.8 0.7-0.6 1-1 1-1q0-0.1 0-0.1c0.4-0.6 1-1.5 1.9-2.9 1.8-3 11-10.4 11.2-11.1z"/>
			<g id="&lt;Group&gt;">
				<path id="&lt;Path&gt;" class="s8" d="m762.5 228.4l4.1-6.5-36.6 33.7 2.8 16.3c15.2-2.4 22.3-27 29.7-43.5z"/>
				<path id="&lt;Path&gt;" class="s6" d="m692.6 190.3c0 0-10.8 61.4 24.9 73.9 35.7 12.4 48.2-46.3 48.3-66.9 0.1-20.5-9.5-31.3-34.9-33.9-37.6-3.8-38.3 26.9-38.3 26.9z"/>
				<path id="&lt;Path&gt;" class="s8" d="m773.7 166.5c-7.3-10.5-18-16.3-44.9-15.8-20.5 0.3-33.3 14-37.7 21.1-1.4 2.3-4.9 8.8 1.9 15.7 0 0 0.2-4.9 4.7-10.4 0 0 42.6 23.1 59.6 19.7l4.1 16c0 0 5.7-8.2 11.6-10.8 0 0 8-24.9 0.7-35.5z"/>
				<path id="&lt;Path&gt;" class="s6" d="m780.5 217.3c-2.8 8-9.6 13-15.2 11.1-5.6-1.8-7.9-9.9-5.1-17.9 2.8-8 9.6-13 15.1-11.1 5.6 1.9 7.9 9.9 5.2 17.9z"/>
				<path id="&lt;Path&gt;" class="s8" d="m727.9 216.6c0 2.1-1.1 3.8-2.5 3.8-1.3 0-2.4-1.7-2.4-3.8 0.1-2.1 1.2-3.8 2.5-3.8 1.4 0 2.4 1.7 2.4 3.8z"/>
				<path id="&lt;Path&gt;" class="s8" d="m699.8 216.5c0.1 2-0.9 3.7-2.1 3.7-1.2 0.1-2.2-1.5-2.3-3.5-0.1-2 0.8-3.6 2-3.7 1.3 0 2.3 1.6 2.4 3.5z"/>
				<path id="&lt;Path&gt;" class="s7" d="m737 200.5c0 0-9.8 1.4-9.8-7.7"/>
				<path id="&lt;Path&gt;" class="s7" d="m704.4 197.6c0 0-3 8.3-9.9 3"/>
				<path id="&lt;Path&gt;" class="s8" d="m727.4 250.7c0 0 4-12.8 13.4-4.7z"/>
				<path id="&lt;Path&gt;" class="s11" d="m775.2 209.8c0 0-6-5.9-10.2 3.9 0 0 3.5 4.2 0.9 7.2 0 0 3.7 1.1 5.7-2"/>
				<path id="&lt;Path&gt;" class="s11" d="m772.2 213.5c0 0-0.2-2.3-2.5-5"/>
				<path id="&lt;Path&gt;" class="s7" d="m703.5 224.4c-1.3 1.5-1.7 3.3-1.2 5.3 0.4 1.9 2.3 3.3 4.3 3.3"/>
			</g>
			<path id="&lt;Path&gt;" class="s10" d="m769.7 228.4c0 3.1-2.4 5.5-5.4 5.5-3 0-5.5-2.4-5.5-5.5 0-3 2.5-5.4 5.5-5.4 3 0 5.4 2.4 5.4 5.4z"/>
			<path id="&lt;Path&gt;" class="s7" d="m678.1 269.2c0 0 2.1 4.6 7.2 3.7"/>
			<path id="&lt;Path&gt;" class="s7" d="m681.2 214c0 0 3.8 2-2.4 23.8 0 0 3.9 13.9 2.8 16.5-1.1 2.6-6.3 7-7.9 7.2"/>
			<path id="&lt;Path&gt;" class="s7" d="m692 247.6c0 0-5.3 6-5.5 14.2"/>
			<path id="&lt;Path&gt;" class="s7" d="m688 211.8c0 0 1.2 16.7-1.4 25.8"/>
		</g>
		<g id="&lt;Group&gt;">
			<path id="&lt;Path&gt;" class="s1" d="m521 910.4c0 7.8-18.1 14.1-40.4 14.1-22.3 0-40.5-6.3-40.5-14.1 0-7.7 18.2-14 40.5-14 22.3 0 40.4 6.3 40.4 14z"/>
			<g id="&lt;Group&gt;">
				<g id="&lt;Group&gt;">
					<path id="&lt;Path&gt;" class="s12" d="m479.7 701.1c0 0-12.2 1.2-8.1-30.5 4-30.1 19.1-52 20.3-52.1 0 0 21.8 31.3 8.1 58.4-13.6 27.2-20.3 24.2-20.3 24.2z"/>
					<path id="&lt;Path&gt;" class="s12" d="m579.8 655.4c0 0-28 33.5-96.2 57.2 0 0-0.4-9 23.1-30.6 23.6-21.7 76.3-36.9 73.1-26.6z"/>
					<path id="&lt;Path&gt;" class="s7" d="m579.8 655.4c0 0-53.4 8.3-96.2 57.2 0 0-4.2 5.3-4.7 16.8"/>
					<path id="&lt;Path&gt;" class="s12" d="m378.8 720.3c0 0 28 33.6 96.2 57.3 0 0 0.4-9-23.2-30.6-23.6-21.7-76.3-36.9-73-26.7z"/>
					<path id="&lt;Path&gt;" class="s7" d="m378.8 720.3c0 0 53.4 8.4 96.2 57.3 0 0 4.2 5.3 4.7 16.8"/>
					<path id="&lt;Path&gt;" class="s12" d="m416.6 789.1c0 0 18.6 15.2 59.1 3 0 0-0.6-7.8-15.7-15-15.1-7.2-46.1 4.8-43.4 12z"/>
					<path id="&lt;Path&gt;" class="s7" d="m416.6 789.1c0 0 30.8-18.2 59.1 3 0 0 2.8 2.6 4.1 12.1"/>
					<path id="&lt;Path&gt;" class="s12" d="m572.6 709c0 0-19.6 52.7-87.8 76.3 0 0-2.3-29.7 21.3-51.4 23.5-21.6 69.7-35.2 66.5-24.9z"/>
					<path id="&lt;Path&gt;" class="s7" d="m572.6 709c0 0-49.8 10.6-87.8 76.3 0 0-4.3 7.9-4.9 19.4"/>
					<path id="&lt;Path&gt;" class="s12" d="m468 717.3c0 0-5.7 9.3-28.3 6.4-22.6-2.9-47-29.8-62.3-24.9 0 0 37.5-13.4 90.6 18.5z"/>
					<path id="&lt;Path&gt;" class="s7" d="m483.7 845.2c-5.5-46.7-7.9-103-1.4-163.7 0 0 0.9-16.1 9.6-63"/>
					<path id="&lt;Path&gt;" class="s7" d="m382.1 697.6c0 0 37.9-9.2 85.9 19.7 11.6 7 11.1 20.2 10.4 30.4"/>
				</g>
				<path id="&lt;Path&gt;" class="s13" d="m436.3 825.9l13.2 80.9c0 5 14 9 31.3 9 17.3 0 31.3-4 31.3-9l13.2-80.9z"/>
				<path id="&lt;Path&gt;" class="s8" d="m525.3 825.9c0 4.9-19.9 9-44.5 9-24.6 0-44.5-4.1-44.5-9 0-5 19.9-9 44.5-9 24.6 0 44.5 4 44.5 9z"/>
			</g>
		</g>
		<g id="&lt;Group&gt;">
			<g id="&lt;Group&gt;">
				<path id="&lt;Path&gt;" class="s2" d="m529.7 101.4c34 1 62.2 28.2 64.1 62.1 1.2 20-6.6 38.2-19.6 51-1.9 1.9-2.8 4.6-2.4 7.3l4.9 28.9-30.1-17.5c-1.7-1-3.7-1.4-5.6-1-7.4 1.5-15.2 1.7-23.2 0.5-29.8-4.5-52.9-29.1-55.7-59-3.6-39.9 28.2-73.3 67.6-72.3z"/>
			</g>
			<g id="&lt;Group&gt;">
				<path id="&lt;Compound Path&gt;" class="s8" d="m526.1 196.9q-1.4 0-2.1-0.8-0.8-0.9-0.8-2.4 0-1.5 0.8-2.4 0.8-0.9 2.1-0.9 1.4 0 2.1 0.8 0.7 0.9 0.7 2.5 0 1.3-0.7 2.3-0.8 0.9-2.1 0.9zm-0.6-22.7q-0.1-2.8-0.2-5.8-0.1-3-0.2-5.9 0-3 0.1-6.1v-24.1h2.3l0.1 24.1q0 3.1-0.1 6.1 0 2.9-0.1 5.9-0.1 3-0.2 5.8z"/>
			</g>
		</g>
	</g>
	<g id="TEXTS">
		<text id="No Data
" style="transform: matrix(2,0,0,2,265.354,501.868)" >
			<tspan x="0" y="0" class="t14">No Data
</tspan>
		</text>
	</g>
</svg>