<svg version="1.2" xmlns="http://www.w3.org/2000/svg" viewBox="0 0 1200 1000" width="1200" height="1000">
	<title>21852399_students_09-ai</title>
	<style>
		.s0 { fill: #140f0e } 
		.s1 { fill: #301f23 } 
		.s2 { fill: #140d0f } 
		.s3 { fill: #d88d5b } 
		.s4 { fill: #176e82 } 
		.s5 { fill: #1c92a5 } 
		.s6 { fill: #bacae0 } 
		.s7 { fill: #125a66 } 
		.s8 { fill: #3f2935 } 
		.s9 { fill: #ffb278 } 
		.s10 { fill: #e5804e } 
		.s11 { fill: #23161e } 
		.s12 { fill: #d8250e } 
		.s13 { fill: #e25b00 } 
		.s14 { fill: #e59e00 } 
		.s15 { fill: #69999e } 
		.s16 { fill: #ffffff } 
		.s17 { fill: #ba562f } 
		.s18 { fill: #1e1714 } 
		.s19 { fill: #2d221e } 
		.s20 { fill: #aa160b } 
		.s21 { fill: #f9dd50 } 
		.s22 { fill: #601e13 } 
		.s23 { fill: #822316 } 
		.s24 { fill: #f5dfd4 } 
		.s25 { fill: #e2c5b7 } 
		.s26 { fill: #617695 } 
		.s27 { fill: #4f6177 } 
		.s28 { fill: #f72828 } 
		.s29 { fill: #e52323 } 
		.s30 { fill: #3f1411 } 
		.s31 { fill: #1e1316 } 
		.s32 { fill: #2f4c1c } 
		.s33 { fill: #e8e2dd } 
		.s34 { fill: #47722b } 
		.s35 { fill: #6baa43 } 
		.s36 { fill: #fffbf8 } 
		.s37 { fill: #f72e1e } 
		.s38 { fill: #3b3348 } 
		.s39 { fill: #68300b } 
		.s40 { fill: #260f0e } 
		.s41 { fill: #086a97 } 
		.s42 { fill: #084b63 } 
		.s43 { fill: #0b8bb7 } 
		.s44 { fill: #095e7c } 
		.s45 { fill: #3f1616 } 
		.s46 { fill: #160808 } 
		.s47 { fill: #a18bbc } 
		.s48 { fill: #ad4b14 } 
		.s49 { fill: #441e08 } 
		.s50 { fill: #bababa } 
		.s51 { fill: #e2e2e2 } 
		.s52 { fill: #f9a56b } 
		.s53 { fill: #0e0e11 } 
		.s54 { fill: #18181e } 
		.s55 { fill: #313944 } 
		.s56 { fill: #384150 } 
		.s57 { fill: #c7c7dd } 
		.s58 { fill: #dadaef } 
		.s59 { fill: #f8f8ff } 
		.s60 { fill: #3d2726 } 
		.s61 { fill: #d86f41 } 
		.s62 { fill: #16100f } 
		.s63 { fill: #73504a } 
		.s64 { fill: #684743 } 
		.s65 { fill: #2e2a29 } 
		.s66 { fill: #423d3c } 
		.s67 { fill: #e2231a } 
		.s68 { fill: #f92828 } 
		.s69 { fill: #075975 } 
	</style>
	<g id="Layer 1">
		<g id="&lt;Group&gt;">
			<path id="&lt;Path&gt;" class="s0" d="m925.9 250c13.9 2.4 31.4 1.6 44.1 9.9 14.1 9.2 17 35 20.2 50 7.3 33.5 12.1 68 16.7 102 3.1 22.9 10.2 56.3-1.7 77.6-17.4 31.1-75.3 34.6-105.6 26.1-39.4-11.1-42.9-55.5-42.6-89.8-0.3-0.9-0.3 0.7-0.8 0.9z"/>
			<g id="&lt;Group&gt;">
				<g id="&lt;Group&gt;">
					<g id="&lt;Group&gt;">
						<path id="&lt;Path&gt;" class="s1" d="m744.6 918.7c5 3.5 40.8 2.8 52.1 0.9q0.1 0 0.1 0c1.9-0.3 3.2-0.7 3.7-1.1q0.1 0 0.1-0.1c1.5-1.4 1.1-7.4-0.2-14.6-2-11.4-6.1-25.9-7.7-29.6l-15.8 2c-9.7 24.4-36.6 26.7-32.3 42.5z"/>
					</g>
					<g id="&lt;Group&gt;">
						<path id="&lt;Path&gt;" class="s2" d="m800.6 918.4q0 0.1-0.1 0.1c-0.5 0.4-1.8 0.7-3.7 1.1q0 0-0.1 0c-11.3 1.9-47.1 2.6-52.1-0.9-0.7-2.6-0.6-4.8 0.2-6.8q0.1 0.4 0.2 0.8c5 3.5 40.7 2.8 52.1 0.9q0 0 0.1 0c1.8-0.3 3.1-0.6 3.7-1 0 0 0.2-0.1 0.6-0.2 0.2 3-0.1 5.2-0.9 6z"/>
					</g>
					<path id="&lt;Path&gt;" class="s3" d="m800 830.9l-25.6-12.4c0.7 17.9-0.7 67.8 1 71.3 0 0 7.6 2.3 10.9 0.5 6.7-3.6 14.8-48.1 13.7-59.4z"/>
					<path id="&lt;Path&gt;" class="s1" d="m775.7 869c-8.3 0.4-11.2 3.8-9.2 10.9 0.9 3.3 4 17.1 1.1 18l16.2 0.5c2.9-8.4 8.7-30.2-8.1-29.4z"/>
				</g>
				<g id="&lt;Group&gt;">
					<g id="&lt;Group&gt;">
						<path id="&lt;Path&gt;" class="s1" d="m954.6 919.2c-0.9 0.6-2.7 1.1-5 1.5-10.4 1.5-32.3 0.4-41.5-1.1q-0.1 0-0.1 0-1.2-0.2-2.1-0.5-1.1-0.3-1.6-0.6 0 0-0.1-0.1c-0.8-0.8-1.1-3-0.9-6.1q0-0.7 0.1-1.5c0.2-2.1 0.5-4.4 1-7 2-11.4 6.1-25.9 7.7-29.6l15.8 2c4.5 11.3 11.5 18 17.3 23.5 5 4.7 9 8.5 9.8 13.6 0.3 1.8 0.2 3.7-0.4 5.9z"/>
					</g>
					<g id="&lt;Group&gt;">
						<path id="&lt;Path&gt;" class="s2" d="m954.6 919.2c-0.9 0.6-2.7 1.1-5 1.5-12.5 1-33.7-0.1-43.1-1.5q-0.1 0-0.1 0-0.2 0-0.5-0.1-1.1-0.3-1.6-0.6 0 0-0.1-0.1c-0.8-0.8-1.1-3-0.9-6.1 1.2 0.1 2.3 0.2 3.1 0.3q0 0 0.1 0c11 1.6 38 2.8 48.5 0.7 0.3 1.8 0.2 3.7-0.4 5.9z"/>
					</g>
					<path id="&lt;Path&gt;" class="s3" d="m904.8 830.9l25.6-12.4c-0.7 17.9 0.7 67.8-1 71.3 0 0-7.6 2.3-10.9 0.5-6.7-3.6-14.8-48.1-13.7-59.4z"/>
					<path id="&lt;Path&gt;" class="s1" d="m929.2 869c8.2 0.4 11.1 3.8 9.2 10.9-0.9 3.3-4.1 17.1-1.2 18l-16.1 0.5c-3-8.4-8.8-30.2 8.1-29.4z"/>
				</g>
				<path id="&lt;Path&gt;" class="s4" d="m947.1 518.8q0 1.5-0.1 3.1c-2.5 57-7.9 148-6.4 220.7 1.1 50.2-3.1 95.2-6 118.4l-30.3 1c-5-26.8-13.4-74.9-10.6-118 3.9-57.8-7.2-121.7-13.2-182q-1-10.5-1.8-20.8-0.1-1.6-0.2-3.1v-1.7l0.1-0.4q0 0 0 0v-2.8l1.7-50.5 0.2-6.4 67.4-3.5c0.6 7.9 0.2 24.3-0.8 46z"/>
				<path id="&lt;Path&gt;" class="s4" d="m766.7 858.7l29 2.2c1.2-3.2 2.6-6.8 4.1-10.7 10.1-27 24.2-69.1 28.8-106.5 8.1-65 32-133.6 49.4-198.5q0.1-0.3 0.2-0.6l0.5-3.4 0.8-4.9 0.5-3.2v-0.2l7.1-44.3 0.8-5.1-7.6-0.8-60.2-5.7c-1.8 6.7-3.6 19.4-5.6 36.2q-0.2 1.5-0.4 3.1c-6.2 53.2-14.1 144.1-30.1 218.7-4.6 21.6-7.5 44.4-9.8 64.8-2.3 20.6-3.9 38.8-5.9 50.9q-0.7 4.6-1.6 8z"/>
				<path id="&lt;Path&gt;" class="s5" d="m899.9 848.4c-1.1 4.1 1.5 11 1.7 15.2l34.1 1.1c1.8-4.5 1.8-11.7 2-16.7-12.9 0.4-26 1-37.8 0.4z"/>
				<path id="&lt;Path&gt;" class="s6" d="m842.1 479.4q-0.1 0.7-0.2 1.5c-0.8 9-2.2 22.7-9.9 29.4-5.2 4.6-11.2 6-17.5 6q-0.2 0-0.4 0 0.2-1.6 0.4-3.1c5.5 0 10.9-1.3 15.4-5.2 6.7-5.9 8-18.9 8.8-27.4q0.1-0.8 0.2-1.5z"/>
				<path id="&lt;Path&gt;" class="s7" d="m768.3 850.7c5.8-0.5 12.2-0.2 17.7-0.8 2.7-0.2 8.3 0.2 13.8 0.3 10.1-27 24.2-69.1 28.8-106.5 8.1-65 32-133.6 49.4-198.5q0.1-0.3 0.2-0.6l0.5-3.4 0.8-4.9 0.5-3.2v-0.2h-12.9c-7.3 9.4-9.7 30.4-12.3 43.2-3.1 15.2-7.7 29.8-13.1 45.3-10.7 30.4-19.7 59.2-22.9 91-2.6 25.9-7.4 98.4-44.6 87.4-2.3 20.6-3.9 38.8-5.9 50.9z"/>
				<path id="&lt;Path&gt;" class="s6" d="m947.1 518.8q0 1.5-0.1 3.1c-7.1 0-14.1-1.4-20-5.9-8.9-6.8-10.5-20.4-11.5-29.5q-0.1-0.8-0.1-1.5l3.2-0.3q0.1 0.7 0.2 1.5c0.9 8.5 2.4 21.4 10.2 27.3 5.3 4 11.6 5.3 18.1 5.3z"/>
				<g id="&lt;Group&gt;">
					<path id="&lt;Path&gt;" class="s5" d="m867.5 536.7l-0.4-1c-3.8-9.9 0.8-36.9 4.6-45l2.9 1.3c-3.4 7.4-7.6 31.8-4.8 41.5 5-0.1 8.5-0.2 10.4-0.4l0.3 3.1c-2.1 0.2-6 0.4-11.8 0.5z"/>
					<path id="&lt;Path&gt;" class="s5" d="m888.5 488.9c-5.8 24.3-7 47.5-7.9 73.1h-0.1q-1-10.5-1.8-20.8l-0.5 3.4q-0.1 0.3-0.2 0.6 0.2-4.5 0.5-8.8 0-0.2 0.1-0.4 0 0 0 0 0-1.4 0.2-2.8c1.1-15.1 2.9-29.8 6.5-45l1.8 0.4z"/>
				</g>
				<path id="&lt;Path&gt;" class="s5" d="m767.4 844.3c-1.2 4-2.4 10.4-2.2 14.6l34.6 2.6c1.8-4.4 3.4-11.6 3.7-16.7-12.9 0.5-24.3 0.1-36.1-0.5z"/>
			</g>
			<path id="&lt;Path&gt;" class="s8" d="m967.9 337.7c-4.1 27.8-14.8 69.1-15.4 81.7q0 0.4 0 0.8c-0.9 20.5 0 50.2-0.9 69.7-4 12.8-73 8.9-110.6 2.5q-0.4-0.1-0.7-0.1-0.3-0.1-0.7-0.1-0.5-0.1-1-0.2c-11.8-2.1-19.9-4.5-21.3-6.5q0 0 0 0-0.1-0.1-0.1-0.2-0.1-0.2-0.1-0.3c-1.3-7.6 4.9-29.3 6.5-37 3.8-19.5 0.1-67-0.3-76.6q-0.2-3.8-0.8-7.8c-0.9-5.9-2.4-12-4.1-17.8q-0.7-2.2-1.4-4.4c-3.2-9.3-8.7-20.1-9.7-29.7-0.9-9.3 7-45.3 8.5-55 1.5-9.2 31.4-8.5 37.7-15.7l16.1 7.3c5.7-1.6 13.9 1 20.3-0.2 5-0.9 10.1-3.2 15-4.7 4.3-1.3 9-5.1 13.1-5.7 8.2-1.3 43.3 5.9 50.9 8.6q0.1 0 0.2 0.1c1.6 0.5 2.7 2.2 3.6 4.6 5.9 16.3-2.1 68.8-4.8 86.7z"/>
			<path id="&lt;Path&gt;" class="s9" d="m847.6 244.5c2.5 9.8 13.4 26.7 28 27.3 14.1 0.5 39-16.2 47.8-33.3-5-1.1-10.3 1.3-12.7-5.5-1.4-4-2.6-5.7-3.2-9.9q0-0.1 0-0.1-0.2-1.6-0.4-3.2c-0.7-4.5-0.7-9.5-0.7-14.5 0.1-5.5 0.4-11 0.2-15.8q0-1.1-0.1-2.1l-36.3 17.9-15.9 7.9q-0.1 0.8 0 1.7c0.2 1.9 0.6 4.3 1.2 6.8 0.7 3.6 1.1 7.1 0.9 10.2-0.5 5.4-2.9 9.8-8.8 12.6z"/>
			<path id="&lt;Path&gt;" class="s10" d="m854.3 213.2q-0.1 0.8 0 1.7c0.2 1.9 0.6 4.3 1.2 6.8 0.7 3.6 1.1 7.1 0.9 10.2 8.6 8.6 16.3 9.1 22.6 7.6 15.5-3.7 27.4-29.2 27.4-34.2h-36.2z"/>
			<path id="&lt;Path&gt;" class="s11" d="m967.9 337.7c-4.1 27.8-14.8 69.1-15.4 81.7q0 0.4 0 0.8c-0.9 20.5 0 50.2-0.9 69.7-0.6 13.4-72.2 9.1-110.6 2.5q-0.4-0.1-0.7-0.1-0.3-0.1-0.7-0.1-0.5-0.1-1-0.2c-11.7-2.2-19.9-4.5-21.3-6.5q0 0 0 0-0.1-0.1-0.1-0.2-0.1-0.2-0.1-0.3c-1.3-7.6 4.9-29.3 6.5-37 3.8-19.5 0.1-67-0.3-76.6q-0.2-3.8-0.8-7.8c-0.9-5.9-2.4-12-4.1-17.8 9.2 5.3 45.7 14.5 59.5 16.2 49.7 6 73.9-25.8 77.9-38.6 6.5-21.1 11.6-49 16.9-72.4 5.9 16.3-2.1 68.8-4.8 86.7z"/>
			<g id="&lt;Group&gt;">
				<path id="&lt;Path&gt;" class="s12" d="m957.3 325.8c9.7 16.4 12.8 22.4 16 28.7 6.3 12.4 12.6 25.9 17.1 37q0.1 0.3 0.2 0.6c3.4 8.6 6 24.8 15.2 30.3 3.1 1.9 7 2.5 12 1.1q0 0 0 0 0.4-0.1 0.7-0.2c12.4-3.9 16.5-15.6 16-30.4-1.3-37.6-45.8-135.4-63.7-145.9 0 0-28.7 38.1-28.5 53.2 0.2 7.4 15 25.6 15 25.6z"/>
			</g>
			<path id="&lt;Path&gt;" class="s12" d="m888.4 541.9c12 4.2 32.1 0.5 45.2-0.7 6.5-0.6 12.5-2.5 19.2-2.2 5.8 0.2 15.8 4 21 2.9 0.3-4.7-9.4-144.5-8.3-157.2 3.4-36.5 13.5-83 12.7-126.4 0-4.4-6.8-12.3-11.2-13.5-6.5-1.9-15.1-3.5-23.4-4.8-10.9-1.7-21.2-2.8-25.8-3.2-1.5-0.2-2.4-0.3-2.4-0.3 0 0.6 0 2.6-0.3 6-0.9 14.7-4.2 54.2-8.2 100-7.2 83.4-16.8 187.6-18.5 199.4z"/>
			<path id="&lt;Path&gt;" class="s12" d="m856.1 544.3c-10 3.6-26.2-0.9-36.8-2.5-5.3-0.9-10.1-3-15.6-3.1-4.8 0-13.1 3.4-17.3 2.1-0.1-4.6 18.1-285.4 30.2-291.7 5-2.6 32.2-6.4 32.2-6.4-0.1 0.5-0.1 2.6-0.1 5.8 0.1 14.5 0.8 53.6 1.9 98.8 1.9 82.4 4.7 185.2 5.5 197z"/>
			<g id="&lt;Group&gt;">
				<path id="&lt;Path&gt;" class="s13" d="m755.1 536.7c-3.2-0.4-5.4-3.4-4.9-6.5l9.5-66.2c0.4-3.1 3.4-5.3 6.5-4.9l97.4 14c3.1 0.5 5.3 3.4 4.9 6.5l-9.5 66.2c-0.5 3.2-3.4 5.3-6.6 4.9z"/>
				<path id="&lt;Path&gt;" class="s14" d="m755.8 531.9c-3.2-0.4-5.4-3.3-4.9-6.5l9.5-66.1c0.4-3.2 3.4-5.4 6.5-4.9l97.4 13.9c3.1 0.5 5.3 3.4 4.8 6.6l-9.5 66.1c-0.4 3.2-3.3 5.4-6.5 4.9z"/>
				<g id="&lt;Group&gt;">
					<path id="&lt;Path&gt;" class="s15" d="m851.9 473.1c-1.2-0.1-2-1.2-1.8-2.4 0.1-1.2 1.2-2.1 2.4-1.9 1.2 0.2 2.1 1.3 1.9 2.5-0.2 1.2-1.3 2-2.5 1.8z"/>
					<path id="&lt;Path&gt;" class="s15" d="m841.3 471.6c-1.2-0.2-2-1.3-1.9-2.5 0.2-1.2 1.3-2 2.5-1.8 1.2 0.2 2 1.3 1.8 2.5-0.1 1.2-1.2 2-2.4 1.8z"/>
					<path id="&lt;Path&gt;" class="s15" d="m830.6 470.1c-1.2-0.2-2-1.3-1.8-2.5 0.1-1.2 1.3-2 2.4-1.8 1.2 0.1 2.1 1.2 1.9 2.4-0.2 1.2-1.3 2.1-2.5 1.9z"/>
					<path id="&lt;Path&gt;" class="s15" d="m820 468.6c-1.2-0.2-2-1.3-1.9-2.5 0.2-1.2 1.3-2 2.5-1.9 1.2 0.2 2 1.3 1.9 2.5-0.2 1.2-1.3 2-2.5 1.9z"/>
					<path id="&lt;Path&gt;" class="s15" d="m809.3 467c-1.2-0.1-2-1.2-1.8-2.4 0.1-1.2 1.3-2.1 2.5-1.9 1.1 0.2 2 1.3 1.8 2.5-0.2 1.2-1.3 2-2.5 1.8z"/>
					<path id="&lt;Path&gt;" class="s15" d="m798.7 465.5c-1.2-0.2-2-1.3-1.9-2.5 0.2-1.2 1.3-2 2.5-1.8 1.2 0.1 2 1.3 1.9 2.5-0.2 1.1-1.3 2-2.5 1.8z"/>
					<path id="&lt;Path&gt;" class="s15" d="m788 464c-1.2-0.2-2-1.3-1.8-2.5 0.2-1.2 1.3-2 2.5-1.9 1.1 0.2 2 1.3 1.8 2.5-0.2 1.2-1.3 2-2.5 1.9z"/>
					<path id="&lt;Path&gt;" class="s15" d="m777.4 462.4c-1.2-0.1-2-1.2-1.9-2.4 0.2-1.2 1.3-2.1 2.5-1.9 1.2 0.2 2 1.3 1.9 2.5-0.2 1.2-1.3 2-2.5 1.8z"/>
				</g>
				<g id="&lt;Group&gt;">
					<path id="&lt;Path&gt;" class="s16" d="m852.2 471.1c-0.7-0.1-1.2-0.8-1.1-1.5l1.2-8.4c0.1-0.7 0.8-1.3 1.5-1.2 0.7 0.2 1.2 0.8 1.1 1.6l-1.2 8.3c-0.1 0.8-0.7 1.3-1.5 1.2z"/>
					<path id="&lt;Path&gt;" class="s16" d="m841.6 469.5c-0.8-0.1-1.3-0.7-1.2-1.5l1.2-8.3c0.1-0.8 0.8-1.3 1.6-1.2 0.7 0.1 1.2 0.8 1.1 1.5l-1.2 8.4c-0.1 0.7-0.8 1.3-1.5 1.1z"/>
					<path id="&lt;Path&gt;" class="s16" d="m830.9 468c-0.7-0.1-1.2-0.8-1.1-1.5l1.2-8.4c0.1-0.7 0.8-1.2 1.5-1.1 0.7 0.1 1.3 0.8 1.1 1.5l-1.2 8.4c-0.1 0.7-0.7 1.2-1.5 1.1z"/>
					<path id="&lt;Path&gt;" class="s16" d="m820.3 466.5c-0.8-0.1-1.3-0.8-1.2-1.5l1.2-8.4c0.1-0.7 0.8-1.2 1.6-1.1 0.7 0.1 1.2 0.8 1.1 1.5l-1.2 8.4c-0.1 0.7-0.8 1.2-1.5 1.1z"/>
					<path id="&lt;Path&gt;" class="s16" d="m809.6 465c-0.7-0.1-1.2-0.8-1.1-1.6l1.2-8.3c0.1-0.8 0.8-1.3 1.5-1.2 0.7 0.1 1.3 0.8 1.1 1.6l-1.2 8.3c-0.1 0.8-0.7 1.3-1.5 1.2z"/>
					<path id="&lt;Path&gt;" class="s16" d="m799 463.4c-0.8-0.1-1.3-0.8-1.2-1.5l1.2-8.4c0.1-0.7 0.8-1.2 1.6-1.1 0.7 0.1 1.2 0.8 1.1 1.5l-1.2 8.4c-0.1 0.7-0.8 1.2-1.5 1.1z"/>
					<path id="&lt;Path&gt;" class="s16" d="m788.3 461.9c-0.7-0.1-1.2-0.8-1.1-1.5l1.2-8.4c0.1-0.7 0.8-1.2 1.5-1.1 0.7 0.1 1.3 0.8 1.2 1.5l-1.2 8.4c-0.2 0.7-0.8 1.2-1.6 1.1z"/>
					<path id="&lt;Path&gt;" class="s16" d="m777.7 460.4c-0.8-0.1-1.3-0.8-1.2-1.5l1.2-8.4c0.1-0.7 0.8-1.3 1.6-1.2 0.7 0.2 1.2 0.8 1.1 1.6l-1.2 8.3c-0.1 0.8-0.8 1.3-1.5 1.2z"/>
				</g>
			</g>
			<path id="&lt;Path&gt;" class="s17" d="m955.8 317.7l0.2 0.6q-0.1-0.3-0.2-0.6z"/>
			<g id="&lt;Group&gt;">
				<path id="&lt;Path&gt;" class="s18" d="m836.9 134l13.9 7.8c-2.7 6.7-5.9 12.5-6.8 19.9-0.8 7-1.1 14.1 0 21-3-4.7-5.7-9.8-7.5-15.8-2.5-8.5-3.3-24.7 0.4-32.9z"/>
				<path id="&lt;Path&gt;" class="s9" d="m910.9 180.3c-0.1 2.2 0.9 7.6 0.7 10.5-0.2 7.2-1.1 18.6-4.4 22.8-13.1 16.1-28.1 21.5-38.2 19.9-13.4-2.1-20.2-15.1-22.2-18.7-2.1-3.7-2.9-9.8-3.5-18.1-1.8-21.4-0.2-54.5 1.1-64.3l9.1-4.7c8.2-2.5 13.9-4.2 22.5-3.3 13.5 1.4 30.5 4.5 34.1 19.7 1.9 7.6 1.2 28.4 0.8 36.2z"/>
				<g id="&lt;Group&gt;">
					<path id="&lt;Path&gt;" class="s9" d="m836.3 170.8c4.6 0.3 6.9 7.3 7.6 10.9l0.3 14.7c-8.1 9.5-13.3-9.3-14.1-15.1-0.5-4.1 0.5-10.9 6.2-10.5z"/>
					<path id="&lt;Path&gt;" class="s10" d="m840.1 181c-4.1 1.4-2.7 7.6 0.5 9 0.2-0.2-4.4 0.5-5.3-2.7-1-3.4-0.1-6.4 2-8.8-1-2-3.7-3.3-4.6-0.9 1.5-7.7 7.6-2.4 7.4 3.4z"/>
				</g>
				<g id="&lt;Group&gt;">
					<path id="&lt;Path&gt;" class="s10" d="m885.3 180c0.6 0.4 1.3-1.8 1.8-1.5 4.2 2 8 1.8 10.7 1.2 2.6-0.6 4.2 0.9 4.2 0.9-1.9-2.2-2.8-6.1-4.5-6.9-1-0.4-2.2-0.6-3.8-0.6-3 0-4.7 0.5-6.5 2.3-0.6 0.6-1.3 3.8-1.9 4.6z"/>
					<path id="&lt;Path&gt;" class="s16" d="m885.3 180q0.9 0.5 1.7 0.9c4.2 2.1 7.9 1.9 10.7 1.3 2.6-0.6 4.3-1.6 4.3-1.6-1.9-2.2-2.9-3.6-4.6-4.4-1-0.4-2.2-0.6-3.8-0.6-3 0-4.7 0.5-6.5 2.3q-0.9 0.8-1.8 2.1z"/>
					<path id="&lt;Path&gt;" class="s19" d="m886.9 179.7q0 0.6 0.1 1.2c4.2 2.1 7.9 1.9 10.7 1.3q0.2-1.2 0.2-2.5c0-1.2-0.2-2.4-0.5-3.5-1-0.4-2.2-0.6-3.8-0.6-3 0-4.7 0.5-6.5 2.3q-0.2 0.9-0.2 1.8z"/>
					<path id="&lt;Path&gt;" class="s16" d="m889.6 179.2c0 0.7 0.3 1.4 0.7 1.4 0.4 0 0.7-0.7 0.7-1.4 0-0.8-0.3-1.4-0.7-1.4-0.4 0-0.7 0.6-0.7 1.4z"/>
				</g>
				<g id="&lt;Group&gt;">
					<g id="&lt;Group&gt;">
						<path id="&lt;Path&gt;" class="s10" d="m845.6 180.5c0.5 0.4 1.1-1.9 1.6-1.6 4.1 1.7 7.7 1.3 10.2 0.5 2.5-0.8 4.1 0.5 4.1 0.5-1.9-2-3-5.9-4.7-6.5-0.9-0.4-2.1-0.5-3.6-0.4-2.8 0.2-4.5 0.9-6.1 2.8-0.5 0.6-1 3.8-1.5 4.7z"/>
						<path id="&lt;Path&gt;" class="s16" d="m845.6 180.5q0.8 0.5 1.6 0.8c4.1 1.8 7.7 1.4 10.2 0.6 2.6-0.8 4.1-2 4.1-2-1.9-2-3-3.4-4.6-4-1-0.4-2.1-0.5-3.7-0.4-2.8 0.2-4.5 0.9-6.1 2.8q-0.7 0.9-1.5 2.2z"/>
						<path id="&lt;Path&gt;" class="s19" d="m847.1 180.1q0 0.7 0.1 1.2c4.1 1.8 7.7 1.4 10.2 0.6q0.2-1.2 0.2-2.5c-0.1-1.3-0.4-2.5-0.7-3.5-1-0.4-2.1-0.5-3.7-0.4-2.8 0.2-4.5 0.9-6.1 2.8q0 0.9 0 1.8z"/>
						<path id="&lt;Path&gt;" class="s16" d="m849.7 179.3c0 0.7 0.4 1.3 0.7 1.3 0.4 0 0.6-0.7 0.6-1.4 0-0.8-0.4-1.4-0.7-1.4-0.4 0-0.7 0.7-0.6 1.4z"/>
					</g>
					<path id="&lt;Path&gt;" class="s19" d="m853.8 168.6c2.4 0.5 5.1 0.6 7.7 1.2 3.4 0.8 1.3 5.1 1.3 5.1-0.6 0.5-8-0.2-10.1-0.3-3-0.2-7.8-1.9-10.5-0.5 3.4-5.2 5.2-6.7 11.6-5.5z"/>
				</g>
				<path id="&lt;Path&gt;" class="s19" d="m892.5 168c-2.7 0.4-5.7 0.5-8.5 1-3.8 0.7-1.5 5.1-1.5 5.1 0.6 0.6 8.8-0.1 11.2-0.1 3.3-0.1 8.7-1.8 11.6-0.3-3.7-5.3-5.7-6.8-12.8-5.7z"/>
				<path id="&lt;Path&gt;" class="s10" d="m884.9 207.7q0 0-0.2 0.1-0.3 0.1-0.7 0.3-0.5 0.2-1.1 0.5-0.3 0.2-0.6 0.3-0.4 0.2-0.8 0.3-0.7 0.4-1.6 0.7-0.4 0.2-0.9 0.3c-0.3 0.1-0.6 0.2-0.9 0.3q-0.5 0.2-1 0.3-0.3 0.1-0.5 0.2-0.3 0-0.5 0.1-0.5 0.1-1 0.2-0.6 0.1-1.1 0.2c-0.7 0.1-1.4 0.2-2.1 0.2-0.7 0.1-1.3 0.1-2 0.1-0.6-0.1-1.3-0.1-1.9-0.2q-0.5 0-0.9-0.1-0.4-0.1-0.8-0.1c-0.6-0.1-1-0.3-1.5-0.4q-0.3-0.1-0.6-0.1-0.3-0.1-0.5-0.2-0.5-0.2-0.7-0.2-0.3-0.1-0.3-0.1 0 0 0.2 0.2 0.2 0.2 0.6 0.5 0.2 0.2 0.4 0.4 0.3 0.1 0.6 0.3 0.3 0.2 0.6 0.4c0.2 0.2 0.5 0.3 0.8 0.4q0.4 0.2 0.8 0.4 0.5 0.1 0.9 0.3c0.7 0.2 1.4 0.3 2.1 0.5q0.6 0 1.2 0.1 0.2 0 0.5 0 0.3 0 0.6 0 0.3 0 0.6 0h0.3l0.3-0.1q0.6 0 1.2-0.1c0.7-0.1 1.5-0.3 2.3-0.5 0.7-0.2 1.4-0.5 2.1-0.8q0.5-0.2 0.9-0.5 0.5-0.2 0.9-0.5 0.5-0.3 0.9-0.5 0.3-0.3 0.7-0.5 0.3-0.3 0.6-0.6 0.3-0.2 0.6-0.5 0.5-0.5 0.8-0.8 0.4-0.4 0.5-0.6 0.2-0.2 0.2-0.2z"/>
				<path id="&lt;Path&gt;" class="s10" d="m867.1 184c-0.7 6.1-1.1 12.7 1.5 16 4.2 0.1 9.1-0.1 9.1-0.1-3.6 2.7-11 4.8-13.8 1.1 0.1 0 1.1-12.3 3.2-17z"/>
				<g id="&lt;Group&gt;">
					<path id="&lt;Compound Path&gt;" fill-rule="evenodd" class="s16" d="m877.1 184c0-5.5 6.3-10 14.1-10 7.8 0 14.1 4.5 14.1 10 0 5.5-6.3 10.1-14.1 10.1-7.8 0-14.1-4.6-14.1-10.1zm1.8 0c0 4.5 5.5 8.2 12.3 8.2 6.8 0 12.4-3.7 12.4-8.2 0-4.5-5.6-8.2-12.4-8.2-6.8 0-12.3 3.7-12.3 8.2z"/>
					<path id="&lt;Compound Path&gt;" fill-rule="evenodd" class="s16" d="m839 183.8c0-5.6 6.2-10.1 13.8-10.1 7.6 0 13.8 4.5 13.8 10.1 0 5.5-6.2 10-13.8 10-7.6 0-13.8-4.5-13.8-10zm1.8 0c0 4.5 5.4 8.1 12 8.1 6.6 0 12-3.6 12-8.1 0-4.5-5.4-8.2-12-8.2-6.6 0-12 3.7-12 8.2z"/>
					<path id="&lt;Path&gt;" class="s16" d="m877.3 182.9l1.4-1.1c-1.3-1.9-3.2-3.1-5.5-3.4-2.8-0.4-6.1 0.7-8.5 2.8l1.1 1.4c2-1.7 4.8-2.6 7.2-2.3q2.7 0.4 4.3 2.6z"/>
				</g>
				<g id="&lt;Group&gt;">
					<path id="&lt;Path&gt;" class="s19" d="m842.8 144.5c10.1 6.7 43.4 7.5 50.1 4.5 10.9-4.9 17.8 5.7 18.4 11.6 0.4 4.3-4.3 31.9 3.3 28.8 0 0 13.9-24.7 14.6-49.4 0.2-6.6-3.4-12.1-9.2-16.5-14.3-10.9-41.7-15.3-56.6-13.8-9.9 0.9-24.9 5.8-30.1 16q0 0 0 0.1c-3.1 6.2 4.9 15.6 9.5 18.7z"/>
					<path id="&lt;Path&gt;" class="s18" d="m842.8 144.5c10.1 6.7 43.4 7.5 50.1 4.5 10.9-4.9 17.8 5.7 18.4 11.6 0.4 4.3-4.3 31.9 3.3 28.8 0 0 13.9-24.7 14.6-49.4 0.2-6.6-3.4-12.1-9.2-16.5q-0.1 0.6-0.1 1.2c-0.8 7-5.3 13.4-12.4 15-2.3 0.5-3.5-0.4-5.6-0.7-2.8-0.5-6.2 0-9 0.3-5.9 0.6-11.6 2.4-17.6 2.9-14.7 1.2-32-5.2-42-16.4-3.1 6.2 4.9 15.6 9.5 18.7z"/>
				</g>
				<g id="&lt;Group&gt;">
					<path id="&lt;Path&gt;" class="s9" d="m922.4 175.3c-5.7-0.5-8.7 6.8-10.2 10.5l-4.2 15.4c8 11.8 17.9-7.3 19.8-13.4 1.4-4.3 1.6-11.8-5.4-12.5z"/>
					<path id="&lt;Path&gt;" class="s10" d="m915.9 185.5c4.7 2.4 1.8 8.7-2.4 9.6-0.2-0.3 5.2 1.4 7-1.9 1.8-3.4 1.4-6.8-0.8-9.8 1.6-1.9 5.2-2.8 5.7 0-0.3-8.6-8.6-4.1-9.5 2.1z"/>
				</g>
			</g>
			<path id="&lt;Path&gt;" class="s0" d="m903.1 304v0.3 0.4 0.8q0.1 0.7 0.1 1.5 0 1.4 0 3 0.1 1.4 0.2 2.9 0.1 1.5 0.1 3 0.2 1.4 0.3 2.9c0.6 7.9 1.6 15.8 3.1 23.7q0.1 0.1 0.1 0.2c1.5 7.9 3.6 15.7 6 23.2q0.4 1.4 0.9 2.8 0.4 1.4 0.9 2.8 0.5 1.4 1 2.7 0.5 1.4 1 2.7 0.5 1.4 1 2.7 0.6 1.3 1.1 2.7 0.3 0.6 0.6 1.3l0.2 0.6 0.1 0.2 0.1 0.1v0.1l0.1 0.3q0.3 0.7 0.6 1.3l0.3 0.6 0.3 0.7c0.8 1.8 1.6 3.5 2.4 5.1q0.7 1.3 1.3 2.5 0.4 0.6 0.7 1.2 0.3 0.6 0.7 1.2 2.6 4.8 5.5 9.1c3.8 5.7 7.7 10.9 11.6 15.4q2.9 3.4 5.7 6.3 2.7 3 5.3 5.5c3.5 3.4 6.6 6.1 9.3 8.3 2.6 2.2 4.8 3.9 6.2 5 1.5 1.1 2.3 1.7 2.3 1.7l14.3 10.8-8.9-18.1c0 0-3.2-2.7-3.9-3.3q-1.6-1.5-3.7-3.5c-2.3-2.2-5.1-5-8.2-8.3q-2.2-2.6-4.6-5.5-2.5-2.9-4.9-6.3c-3.3-4.4-6.7-9.4-9.8-14.9q-2.4-4.1-4.5-8.6-0.3-0.5-0.5-1.1-0.3-0.5-0.6-1.1-0.5-1.1-1-2.3c-0.6-1.5-1.3-3.1-1.8-4.6l-0.3-0.6-0.2-0.6q-0.2-0.7-0.5-1.3l-0.1-0.3v-0.1q0 0 0 0l-0.1-0.2-0.2-0.6q-0.2-0.6-0.4-1.3-0.4-1.2-0.8-2.5-0.4-1.3-0.8-2.5-0.4-1.3-0.8-2.6-0.4-1.3-0.8-2.6-0.3-1.3-0.7-2.6-0.3-1.4-0.6-2.7c-1.8-7.1-3.2-14.3-4.2-21.6-0.9-7.4-1.4-14.7-1.5-22q0-1.3 0-2.7 0-1.3 0-2.7 0.1-1.3 0.1-2.6 0-1.3 0.1-2.6 0-0.7 0-1.3l0.1-0.7v-0.3-0.3q0.1-1.4 0.2-2.8 0-0.7 0.1-1.4v-0.7-0.2l0.1-0.3q0.1-1.2 0.2-2.4c0.7-6.6 2-13.1 3.5-19 1.5-6 3.3-11.6 5.2-16.5 1.9-4.9 4-9.2 6-12.7 2-3.6 3.9-6.3 5.6-8.4q0.2-0.1 0.3-0.3c-10.9-1.7-21.2-2.8-25.8-3.2q-0.2 0.4-0.4 0.8-1.2 2.3-2.3 4.9-2.2 5.2-4.2 11.3c-1.9 5.9-3.6 12.4-4.9 19.4-1.3 6.9-2.3 14.3-2.7 22.1q-0.1 1.5-0.1 3l-0.1 0.9v0.7q0 0.6 0 1.3 0 1.4 0 2.8z"/>
			<g id="&lt;Group&gt;">
				<g id="&lt;Group&gt;">
					<path id="&lt;Path&gt;" class="s9" d="m962.7 377.3c-3.9 1.1-40.6-25.7-44.7-26.2-2.4-0.2-8.3-1.8-13.2-4.3-6-3-10.6-7.3-6-12.1-5.4-3.5-5.1-10.9 0.3-12.4-5.4-4.4-3.7-7.4 1.7-10.6-7.6-10 1.7-8.8 9.7-7.5 3.5 0.6 6.7 1.2 8.3 1 6.1-1 0.8-3.7 0.9-11 0.2-4.8 2.1-8.5 7-7.1 2.4 4.9 3.1 12.1 10.4 21.3 3.5 4.6 11.5 31.7 11.5 31.7-5.6 2.9 20.1 35.5 14.1 37.2z"/>
					<path id="&lt;Path&gt;" class="s10" d="m904.8 346.8c-6-3-10.6-7.3-6-12.1-5.4-3.5-5.1-10.9 0.3-12.4-5.4-4.4-3.7-7.4 1.7-10.6-7.6-10 1.7-8.8 9.7-7.5 1.1 2.4-1.2 5.6-4.1 7.2 4.3 3 3.7 9.9-1.5 11.8 2.9 2.2 2.8 6.8-0.6 8.4 4.4 3.9 3.8 11.1 0.5 15.2z"/>
				</g>
				<path id="&lt;Path&gt;" class="s12" d="m940.2 369.4c1.4 1.3 18.6 37 58.4 50.7 2.7 0.9 5 1.7 7.2 2.3 4.7 1.4 8.4 1.9 12 1.1q0 0 0 0 0.4-0.1 0.7-0.2c12.4-3.9 16.5-15.6 16-30.4q-1.4-1.6-3.1-3.4c-14.8-15-75.6-40.4-82.8-52.1z"/>
			</g>
			<g id="&lt;Group&gt;">
				<path id="&lt;Path&gt;" class="s9" d="m784.3 497.4l24.8 1.1c2.6 8.1 12.1 13.1 15 16.4 6.9 8 13.1 9.9 17.1 12.8 0.4 4.7-3.2 5.7-7.4 5-6.6-1.1-8.1-6.3-10-1-0.5 1.3-0.5 4.3-0.5 7.5-0.2 7.3-0.8 15.7-8.4 7.3-3.8 4.2-6.7 5.2-9.7-0.3-2.2 4.5-8.8 3.5-11-1.9-5.1 3.3-8.1-1.6-9.7-7.4-1.3-4.8-1.7-10.3-1.6-12.4 0.2-1.8 5.3-17.6 1.4-27.1z"/>
				<path id="&lt;Path&gt;" class="s10" d="m784.5 536.9c1.6 5.8 4.6 10.7 9.7 7.4 2.2 5.4 8.8 6.4 11 1.9 3 5.5 5.9 4.5 9.7 0.3 7.6 8.4 8.2 0 8.4-7.3-2-1.4-5.2 0.1-7.1 2.4-1.9-4.3-8.1-5-10.7-0.8-1.5-2.9-5.6-3.6-7.6-0.8-2.7-4.6-9.2-5.3-13.4-3.1z"/>
			</g>
			<path id="&lt;Path&gt;" class="s12" d="m784.4 504l21.2-2.8 6-0.9c-2.2-7.2-0.2-27.8 1.8-49.6 2-20.4 4-41.9 2.8-54.6q-0.2-2.7-0.7-4.9-0.5-2.6-1.1-4.7 0 0-0.1 0-2.8-1.6-5.7-2.8c-10.2-4-20-3-28.3 6.4q-0.3 0.4-0.6 0.7 0 0 0 0c-2.6 3.5-4.1 7.6-5.5 13-0.6 2.5-1.2 5.3-1.8 8.5-0.9 4.2-2.5-2.6-2.9 1.5-4.2 42.2 14.7 88.4 14.9 90.2z"/>
			<path id="&lt;Path&gt;" class="s12" d="m792.6 287.4c3.4-10.2 4.4-17.2 9.8-26.2 5.4-9.1 8.7-9.7 18.2-13.6l1.1 126.3c0.6 9.5-5.8 23.7-10 32.1-3.7 7.1-8.7 15.9-15.3 20.7-7.2 5.3-21.7 7.5-25.7-1.7-6.9-15.3 17.6-124.3 21.9-137.6z"/>
			<g id="&lt;Group&gt;">
				<path id="&lt;Path&gt;" class="s20" d="m979.8 353.3c-6-10.1-15.1-33.2-16.5-43.4 10.2 24.7 20.1 38.6 23.9 51.6-16.4-6.7-28.3-8.5-36.6-24.7 10.8 5.1 20.2 13.5 29.2 16.5z"/>
			</g>
			<path id="&lt;Path&gt;" class="s20" d="m804.6 487.3c0 3.3 0.7 9.1 1 13.9l6-0.9c-2.2-7.2 2.7-156 7.6-184.5-12.4 28.5-14.6 131.2-14.6 146.8 0 8.2 0 16.5 0 24.7z"/>
		</g>
		<g id="&lt;Group&gt;">
			<g id="&lt;Group&gt;">
				<g id="&lt;Group&gt;">
					<g id="&lt;Group&gt;">
						<path id="&lt;Path&gt;" class="s21" d="m415.1 920.2q0 0 0.1 0c8.6 1.7 32.9 1.9 36.7-1.2-0.1-3.7-1.3-5.9-2-7.8q-0.2-0.5-0.4-0.9c-1.2-2.6-3.3-4.2-5.8-6.6-3.9-3.8-8.9-9.2-13.4-22.6l-0.4-0.1-11.7-1.7q0 0 0 0 0 0.1 0 0.1c-1.3 3.5-4.4 16.4-5.9 26.6-0.9 6.4 1.4 13.9 2.8 14.2z"/>
					</g>
					<path id="&lt;Path&gt;" class="s9" d="m443.5 811.7c-3.7 18.8-11.8 54-11.8 73.5 0 6.6-2 15.5-10.6 4.2-5.6-7.3-6.3-54.3-6.4-65.2z"/>
				</g>
				<path id="&lt;Path&gt;" class="s9" d="m418.2 879.2v0.2c0 5.4 0.1 10.8 1 16 0.5 2.9 1.1 7.5 3 9.7 2.2 2.2 5.1-0.6 7.3-1.8 2.6-1.3 5.7-1.8 8.7-1.6 2 0.2 3.8 1.1 5.5 2-3.9-3.8-8.9-9.2-13.4-22.6l-0.4-0.1c-1.7 1.4-4.3 1.9-6 2-3.1 0.2-4.7-0.8-5.7-3.7q0 0 0-0.1z"/>
			</g>
			<g id="&lt;Group&gt;">
				<g id="&lt;Group&gt;">
					<g id="&lt;Group&gt;">
						<path id="&lt;Path&gt;" class="s21" d="m491.8 919.3q0 0 0 0c8.7 1.8 33 2.2 36.8-1-0.1-3.6-1.3-5.8-2-7.8q-0.2-0.4-0.3-0.8c-1.2-2.6-3.3-4.3-5.8-6.7-3.9-3.8-8.9-9.3-13.4-22.7h-0.3l-11.7-1.8q0 0 0 0 0 0-0.1 0.1c-1.3 3.5-4.4 16.3-5.9 26.5-1 6.5 1.3 13.9 2.7 14.2z"/>
					</g>
					<path id="&lt;Path&gt;" class="s9" d="m519.3 812.3c-3.7 18.7-10.6 54.5-10.6 74.1-0.1 6.5-2.3 13.6-10.8 2.2-5.6-7.4-6.1-54.3-6.1-65.2z"/>
				</g>
				<path id="&lt;Path&gt;" class="s9" d="m495 878.4v0.2c0 5.4 0.1 10.7 1 16 0.5 2.9 1 7.5 3 9.7 2.1 2.3 5-0.6 7.3-1.7 2.6-1.3 5.7-1.9 8.7-1.6 2 0.1 3.7 1.1 5.5 2-3.9-3.8-8.9-9.3-13.4-22.7h-0.3c-1.8 1.3-4.3 1.8-6.1 1.9-3.1 0.2-4.6-0.8-5.6-3.7q0-0.1-0.1-0.1z"/>
			</g>
			<g id="&lt;Group&gt;">
				<path id="&lt;Path&gt;" class="s1" d="m425.2 340.1c-3.7-25.9 8-95 11.6-110.8 7.5-32.6 15.4-27 26.2-30l38.6 24.7c6 8.8 5.9 22.2 6 32.2 0 12 10.6 2 9.7 13.9-0.8 9.9 2.1 74.3 6.4 76.3-4.6 3.2-96 10.7-98.5-6.3z"/>
				<g id="&lt;Group&gt;">
					<path id="&lt;Path&gt;" class="s9" d="m414.4 353.5c3.6-12.2 0.4-27.9 12.9-29.7 4.8-0.7 13.5-2.1 20.5-4.5q-0.1-0.1-0.1-0.3 0.3 0.1 0.7 0.1c1.6-0.6 3.2-1.3 4.5-2 5.9-6.2 5.8-25.3 6.4-30.7q0.1-1.2 0.2-2.5c0.7-7.1 1-17.2-2.1-22.5l34.7 16.6 4.2 2q-0.3 0.7-0.5 1.5c-1.7 5.1-2.5 11.7-2.3 17.2q0 0.1 0 0.2 0 0.1 0.1 0.2 0 0 0 0c0.1 1 0.5 3.2 1.2 5.9 0.5 2.2 1.2 4.7 2.1 7.2l0.1-0.1c4.4 8.4 16.8 10 26.5 15.5 4.5 2.7 1.8 17 2.4 22.9 2.2 21.8-96.9 17-111.5 3z"/>
					<path id="&lt;Path&gt;" class="s10" d="m493.6 299.1c0.1 1 0.5 3.2 1.2 5.9-8.2 14.9-31.4 2.3-36.3-17-0.4-1.8 1.8-2.4 1-4.1 0.7-7.1 1-17.2-2.1-22.5l34.7 16.6 3.7 3.5c-1.7 5.1-2.5 11.7-2.3 17.2q0 0.1 0 0.2 0 0.1 0.1 0.2 0 0 0 0z"/>
				</g>
				<g id="&lt;Group&gt;">
					<path id="&lt;Path&gt;" class="s22" d="m362.1 394c3 0.2 5.3 10.5 4.5 21.9-3.5 48.3 10.5 99.1 28.7 100.1 12.6 0.7 24.1-2.8 36.2-4 4.8-0.5 9.6-0.6 14.3-0.8 6.4-0.2 12.7-0.5 19.1-1.9 1-0.2 2.5-0.7 3.4-0.9l-18-180.8c-7.7-5.7-8-8.6-18.6-8.8-8.8-0.2-22.1 1.6-30.8 3.9-5.9 1.6-11.5 3.4-16.3 5.8-7.1 3.6-12.6 8.5-14.9 15.9-3.8 12.9-8.1 28.9-7.6 49.6z"/>
					<path id="&lt;Path&gt;" class="s23" d="m362.1 394c3 0.2 5.3 10.5 4.5 21.9-3.5 48.3 10.5 99.1 28.7 100.1 12.6 0.7 24.1-2.8 36.2-4 4.8-0.5 9.6-0.6 14.3-0.8 2.4-5.2 2.9-10.5 0.2-14.9-2.8-4.6-10.1-7.2-14.3-10.4-4.8-3.8-9.2-8.3-13.6-12.6-18.9-18.6-19.5-46.5-19.5-72 0-18.2-0.1-37.9-4.5-55.4-1.7-7.1-3.6-13.4-9.5-17.4-7.1 3.6-12.6 8.5-14.9 15.9-3.8 12.9-8.1 28.9-7.6 49.6z"/>
				</g>
				<path id="&lt;Path&gt;" class="s9" d="m524 578.5c0.6-5.4-1.2-11.8-2.5-17.1-8.5 1.4-2.2-14.3-0.4-17.5-0.3-1-0.7-0.1-1.2-0.5l9.5-4c3.4 7 7.7 16.6 8.3 24.2 0.4 5-3.8 21.6-7.2 24.7-3-1.2-8 0.7-10.8-1-2-1.2-4.3-7-4.8-9 3-1.2 6.2-0.7 9.1 0.2z"/>
				<path id="&lt;Path&gt;" class="s9" d="m503.5 326.5c8.2-7.9 28.1-3.7 29.2 35.8 0.1 4.9-3.6 84.9-3.6 91-0.3 30.5 2.6 86.8 3.7 97.4-5.6-0.7-8 0.7-13.6 0.2-3.8-18.6-33.9-206.9-15.7-224.4z"/>
				<g id="&lt;Group&gt;">
					<path id="&lt;Path&gt;" class="s24" d="m409.1 363.3c0.6 2.2 2.2 21.1 3.5 45.1 1.1 19.6 2 42.5 1.8 62.5-0.1 11.4-0.6 21.8-1.5 30.1l99.5-1.5c-3.4-4.6-4.1-14.4-3.5-31.8 0.3-6.7 0.7-14.5 1.3-23.6 1-15.6 3.9-25.7 7.2-34.1q1-2.4 2-4.7c2.9-6.7 5.8-12.8 7.9-20.7 0.6-2.5 1.2-5.1 1.6-8 3-19.3 3.7-47-2.3-50l-26.2-10.5c-0.8 10.5-11.5 19.2-18.7 18.7-14.2-0.9-20.9-10.5-28.8-17.7-2-1.8-21.3 1.3-43.7 11.7-2.5 1.2-7.6 7.5-0.1 34.5z"/>
					<g id="&lt;Group&gt;">
						<path id="&lt;Path&gt;" class="s24" d="m506 411.3c4-0.1 8-0.4 11.4-1.3 5.4-1.4 9.6-4.2 11-9.9 0.7-2.6 0.8-5.9 0.1-10.1-0.2-1.2-0.6-3.1-1.2-5.4-2.5-9.9-7.6-27.8-8.2-37.2l-12 58.4z"/>
						<path id="&lt;Path&gt;" class="s24" d="m520.4 341.6l-1.2 5.8c-0.2-3 0.1-5.2 1.2-5.8z"/>
					</g>
					<path id="&lt;Path&gt;" class="s25" d="m410.4 470.7q2 0.1 4 0.2c10.1 0.6 20.3 2.6 30.5 3.3 19.5 1.4 35.2 0.1 54.3-4.3 3.4-0.8 6.8-1.3 9.7-2.2 0.3-6.7 0.7-14.5 1.3-23.6 1-15.6 3.9-25.7 7.2-34.1 5.4-1.4 9.6-4.2 11-9.9-1.5 1.5-3.1 3-4.6 3.7q-2.2 1-4.4 1.5c-4 1-81.1 15.8-103.8-12.2q-1.8 7.6-3 15.3c-3 20.2-3.3 41-2.2 62.3z"/>
				</g>
				<path id="&lt;Path&gt;" class="s23" d="m518.5 316c8.9 5.1 12.6 10.9 13.3 14.6 2.7 16.4 1 34.2-0.7 49.6-1.8 15-5.2 29.9-9.8 42.1-2.3 6.2-6.6 13.1-10.6 18.1 0.2-8.2 1.3-14.3 1.5-22.5 4.6-12.1 7.7-28.9 8.8-38.8 1.7-14.7 6.3-32.5 0.8-46.7-4.9-12.6-21.4-13.4-23.5-17.7-0.1-0.3-1.2-3.2-1.2-3.5 8.6-2 15.5 1.4 21.4 4.8z"/>
				<path id="&lt;Path&gt;" class="s26" d="m368.9 825.2c50.9 12 130 15.7 186.5-0.3 1.2-24.6-5.3-88.1-13.9-155.6-12-94.2-27.8-196.3-31.7-212.4 0 0-16.1 7.4-34.8 7.9-15.1 0.4-40.5-1.2-53.4-2.1-4.9-0.4-8-0.6-8-0.6-37.4 95.8-45.8 309.7-44.7 363.1z"/>
				<path id="&lt;Path&gt;" class="s23" d="m408.5 465.6c6.9 0 13.2-2.2 18.6-6.6 8.3-6.7 14.5-18.1 18.5-34.1 3-12.3 4.7-27.1 4.5-41.8-0.1-15.1-0.6-32.5-5.3-48-1.1-3.5-4.6-12.2-14.1-16-8.5-3.5-18.8-2-30.7 4.6l4.8 8.8c9-4.9 16.6-6.3 22.1-4.1 5.6 2.3 7.7 7.9 8.2 9.6 4.3 14.2 4.8 30.8 4.9 45.2 0.2 24-4.7 56.2-19.2 67.9-5.1 4.1-11 5.4-18.1 3.8l-2.2 9.8q4.1 0.9 8 0.9z"/>
				<path id="&lt;Path&gt;" class="s27" d="m368.9 825.2c50.9 12 130 15.7 186.5-0.3 1.2-24.6-5.3-88.1-13.9-155.6-2.6 2.3-5.3 4.6-8.3 6.2-9.2 4.8-20.9 8.5-31.3 8.9-30.3 1.3-50.5-29.1-59.1-54.6-12.8-37.9-18.2-77.9-21.7-117.6-1.2-14.5-1.4-29.7-0.2-44.1 0.1-1.1 0.4-3.1 0.7-5.4-4.9-0.4-8-0.6-8-0.6-37.4 95.8-45.8 309.7-44.7 363.1z"/>
				<g id="&lt;Group&gt;">
					<g id="&lt;Group&gt;">
						<path id="&lt;Path&gt;" class="s9" d="m525 266.9c0.1-4.9-2.8-9.5-6.2-8.1-10 4-8 16.9-8 16.9 0.3 4.9 5.6 5.3 8 3.8 3.1-2 6.1-7.9 6.2-12.6z"/>
						<path id="&lt;Path&gt;" class="s10" d="m517 263.6c-1.2 2.1-3.4 7-3.4 7-0.6 3.9 5.2 3.6 5.7-1 0.2-2-1.3-4 0.6-5.2 1.3-0.8 2.5 0.6 3 2.2 0.5-4.4-4.1-6.4-5.9-3z"/>
					</g>
					<path id="&lt;Path&gt;" class="s9" d="m503.1 211.6c-23.5-21.4-50.7-1.3-55.1 26.5 0 0-3.3 25.8 1.9 38.2 3.8 9.4 21.5 30.2 37.4 29.3 7.6-0.4 22.1-16.3 25.9-27.2 6.5-18.3 8.5-49.8-10.1-66.8z"/>
					<g id="&lt;Group&gt;">
						<path id="&lt;Path&gt;" class="s1" d="m495.4 249.8c0.4-2.3 4.8-3.2 8.7-3.1 3.6 0.1 6 2 6.6 4-1.8-1.6-5.1-1.8-7.3-1.5-2.3 0.4-8.5 2.5-8 0.6z"/>
						<path id="&lt;Path&gt;" class="s1" d="m476.1 251.5c0.5-2.3-3.1-4-6.5-4.7-3.2-0.7-6 0.5-7.2 2.2 2.1-1.1 5.1-0.6 6.9 0.2 1.9 0.9 6.5 4.1 6.8 2.3z"/>
						<g id="&lt;Group&gt;">
							<path id="&lt;Path&gt;" class="s28" d="m490.2 286.9c-2.7 1.3-6 1.3-8.9-0.1-0.8 2.4 2.1 4.3 5.3 4.2 4-0.2 4.8-4.1 3.6-4.1z"/>
							<path id="&lt;Path&gt;" class="s29" d="m489 286.2c-1.2-0.1-1.3 0.8-2.6 0.9-1.5-0.1-1.6-1.4-3.2-0.7-1.7 0.8-3.7-0.3-3.6-0.3 3 3.3 9.2 4.3 13.1 0.1-1.9 0.8-2.9 0-3.7 0z"/>
						</g>
						<path id="&lt;Path&gt;" class="s10" d="m482.8 276.7q0 0 0.4 0.1 0.2 0 0.5 0.1 0.3 0 0.6 0.1 0.3 0.1 0.6 0.1 0.4 0.1 0.8 0.2 0.4 0 0.8 0.1 0.3 0 0.7 0.1 0.2 0 0.4 0 0.2 0 0.4 0 0.2 0 0.4 0 0.1-0.1 0.3-0.1c0.1 0 0.2 0 0.3 0q0.2-0.1 0.4-0.1 0.1-0.1 0.3-0.1 0.1-0.1 0.2-0.1 0.3-0.2 0.5-0.3 0.1-0.1 0.2-0.1 0.1-0.1 0.1-0.2c0.2-0.1 0.4-0.2 0.4-0.2q0 0-0.1 0.4 0 0.1-0.1 0.2 0 0.1-0.1 0.2-0.1 0.2-0.1 0.3c-0.1 0.1-0.2 0.2-0.2 0.3q-0.2 0.2-0.3 0.3-0.2 0.1-0.4 0.3-0.1 0.1-0.3 0.2-0.2 0.1-0.5 0.2c-0.3 0.1-0.6 0.1-0.9 0.2-0.3 0-0.6 0-1 0-0.3 0-0.6-0.1-0.9-0.1q-0.5-0.1-0.9-0.3-0.4-0.2-0.7-0.3-0.4-0.2-0.7-0.4-0.2-0.2-0.4-0.4-0.3-0.2-0.4-0.4-0.3-0.3-0.3-0.3z"/>
						<g id="&lt;Group&gt;">
							<path id="&lt;Path&gt;" class="s10" d="m508.3 258c-1.3-0.3-3-0.6-5.7-0.3-2.3 0.3-4.6 1.3-6 2.3-0.5 0.4-0.9 0.8-1.3 1.2-0.5 0.7-0.5 1.9-0.5 2 0.8 0.1 1.5-0.8 2.4-0.8 1.8 0 3.9-0.3 5.2-0.6 1.7-0.4 2.9-0.9 4.3-1.4 1.1-0.5 2.5-0.1 4.4-0.7-0.2-1-1.6-1.4-2.8-1.7z"/>
							<g id="&lt;Group&gt;">
								<path id="&lt;Path&gt;" class="s16" d="m511.1 259.7c-1.9 0.6-3.1 1.1-4.2 1.6-1.4 0.6-2.6 1-4.3 1.4-1.3 0.3-3.4 0.6-5.1 0.6-0.9 0-1.9 0-2.7-0.1 0 0 0.2-0.4 0.7-1.1 0.4-0.3 0.8-0.8 1.3-1.2 1.4-1 3.7-2 6-2.2 2.7-0.4 4.5-0.1 5.7 0.2 1.2 0.3 1.9 0.6 2.6 0.8z"/>
								<path id="&lt;Path&gt;" class="s30" d="m506.9 261.3c-1.4 0.6-2.6 1-4.3 1.4-1.3 0.3-3.4 0.6-5.1 0.6-0.4-0.2-1.2-2-0.7-2.4 1.4-1 3.7-2 6-2.2 2.7-0.4 4.5-0.1 5.7 0.2 0 0.5-1.3 2.1-1.6 2.4z"/>
							</g>
							<path id="&lt;Path&gt;" class="s16" d="m505.5 260.4c0 0.4-0.3 0.8-0.7 0.8-0.4 0.1-0.7-0.2-0.7-0.6 0-0.4 0.3-0.8 0.7-0.8 0.4-0.1 0.7 0.2 0.7 0.6z"/>
						</g>
						<g id="&lt;Group&gt;">
							<path id="&lt;Path&gt;" class="s10" d="m472.5 260.4c-1-0.7-2.5-1.7-5.1-2.4-2.3-0.7-4.7-0.7-6.4-0.3-0.6 0.1-1.2 0.4-1.7 0.6-0.7 0.4-1.2 1.5-1.3 1.6 0.8 0.4 1.8-0.1 2.7 0.2 1.6 0.7 3.6 1.3 4.9 1.5 1.7 0.3 3 0.4 4.5 0.4 1.2 0 2.4 0.9 4.4 1.1 0.1-1-1-2-2-2.7z"/>
							<g id="&lt;Group&gt;">
								<path id="&lt;Path&gt;" class="s16" d="m474.5 263.1c-2-0.2-3.3-0.2-4.5-0.2-1.5 0-2.8-0.1-4.5-0.3-1.4-0.3-3.4-0.8-5-1.5-0.8-0.4-1.7-0.8-2.5-1.2 0.1 0 0.4-0.3 1.2-0.6 0.4-0.3 1-0.5 1.6-0.7 1.7-0.4 4.2-0.3 6.4 0.3 2.6 0.7 4.1 1.7 5.2 2.4 1 0.8 1.5 1.3 2.1 1.8z"/>
								<path id="&lt;Path&gt;" class="s30" d="m470 262.9c-1.5 0-2.8-0.1-4.5-0.3-1.4-0.3-3.4-0.8-5-1.5-0.3-0.4-0.3-2.3 0.3-2.5 1.7-0.4 4.2-0.3 6.4 0.3 2.6 0.7 4.1 1.7 5.2 2.4-0.2 0.5-2 1.4-2.4 1.6z"/>
							</g>
							<path id="&lt;Path&gt;" class="s16" d="m469 261.5c-0.2 0.4-0.6 0.6-1 0.5-0.3 0-0.5-0.4-0.3-0.8 0.1-0.3 0.6-0.6 0.9-0.5 0.4 0.1 0.6 0.4 0.4 0.8z"/>
						</g>
					</g>
					<g id="&lt;Group&gt;">
						<g id="&lt;Group&gt;">
							<path id="&lt;Path&gt;" class="s9" d="m437.9 267.5c-0.4-4.9 2.5-9.6 6.3-8.5 11.2 3.3 9.6 16.3 9.6 16.3 0.1 4.9-5.7 5.7-8.5 4.3-3.4-1.7-7-7.4-7.4-12.1z"/>
							<path id="&lt;Path&gt;" class="s10" d="m446.5 263.6c1.4 2.1 4 6.8 4 6.8 0.9 3.8-5.4 4-6.2-0.6-0.4-2 1.1-4-1-5.1-1.4-0.8-2.6 0.8-3.1 2.4-0.9-4.4 4.1-6.7 6.3-3.5z"/>
						</g>
					</g>
					<path id="&lt;Path&gt;" class="s31" d="m478.3 213.3l7.9-13.5c15.9-4 29.7 3.4 36.7 17.9 6.5 13.6-1 38-7.5 51.3 1.2-9.8 1.6-35.7-6.3-42.7-10.2-9-30.4 14.6-30.8-13z"/>
					<g id="&lt;Group&gt;">
						<path id="&lt;Path&gt;" class="s1" d="m449.5 271.9c2.6-7.8 1.2-13.8 3.7-22.2 2.1-7.1 7.1-14.4 21-14.7 7.4-0.1 18.5 0 24.6-15q0.1-0.2 0.1-0.5c3.7-9.3 2.6-20.8-9.7-23.9-6.7-1.7-22.4 0-22.4 0-11 0.9-17.8 5.5-22.1 11.7-2.5 3.6-4.2 7.8-5.3 12.2-3.8 15.4 7.3 37.2 10.1 52.4z"/>
						<path id="&lt;Path&gt;" class="s31" d="m449.5 271.9c2.6-7.8 1.2-13.8 3.7-22.2 2.1-7.1 7.1-14.4 21-14.7 7.4-0.1 18.5 0 24.6-15l-1.7-5.3c-1.8 3.7-2.4 6.7-6.8 8.2-4.1 1.4-9.2 0.8-13.5 0.4-4.9-0.5-9.6-0.5-14.1 1.5-3.9 1.7-5.1 4.7-8.2 7.1-1.4-3.9 0.8-7.7 1.7-11.2-4.6 2.4-6.5 8-7.5 12.7-3.9-4.3-4.5-12.6-4.8-18.2-0.1-2.9 0.2-5.4 0.8-7.9-2.5 3.6-4.2 7.8-5.3 12.2-3.8 15.4 7.3 37.2 10.1 52.4z"/>
					</g>
				</g>
				<g id="&lt;Group&gt;">
					<path id="&lt;Compound Path&gt;" fill-rule="evenodd" class="s16" d="m492.5 262.6c0-6.6 5.3-11.9 11.9-11.9 6.6 0 11.9 5.3 11.9 11.9 0 6.6-5.3 11.9-11.9 11.9-6.6 0-11.9-5.3-11.9-11.9zm1.8 0c0 5.6 4.5 10.1 10.1 10.1 5.6 0 10.1-4.5 10.1-10.1 0-5.6-4.5-10.1-10.1-10.1-5.6 0-10.1 4.5-10.1 10.1z"/>
					<path id="&lt;Compound Path&gt;" fill-rule="evenodd" class="s16" d="m458.7 262.4c0-6.6 5.3-11.9 11.9-11.9 6.6 0 11.9 5.3 11.9 11.9 0 6.6-5.3 12-11.9 12-6.6 0-11.9-5.4-11.9-12zm1.8 0c0 5.6 4.5 10.2 10.1 10.2 5.6 0 10.1-4.6 10.1-10.2 0-5.6-4.5-10.1-10.1-10.1-5.6 0-10.1 4.5-10.1 10.1z"/>
					<path id="&lt;Path&gt;" class="s16" d="m482.2 262.7q1.9-2.8 4.5-3.1c1.9-0.2 4.1 0.8 6 2.7l1.3-1.2c-2.3-2.4-5-3.6-7.5-3.3-2.3 0.2-4.3 1.6-5.8 4z"/>
				</g>
				<g id="&lt;Group&gt;">
					<g id="&lt;Group&gt;">
						<path id="&lt;Path&gt;" class="s9" d="m412.1 598c1.8 1.5 5.2 2.2 7.4 3 2.2 0.7 4.5 1.8 6.7 2.4-1.2 2.8-4.8 5.1-7.6 6-2 0.6-7.1 3-8.2 0.7z"/>
						<g id="&lt;Group&gt;">
							<path id="&lt;Path&gt;" class="s32" d="m461.9 528.6l-87.9-16.7-0.3 37.4 85.3-8.7z"/>
							<path id="&lt;Path&gt;" class="s33" d="m376.1 513.7l84.3 15 0.7 0.7-5.4 9.1-80.1-18.6z"/>
							<path id="&lt;Path&gt;" class="s34" d="m449.2 528.6l-81.4-14.7-0.2 83.1 87.3 19.2z"/>
							<path id="&lt;Path&gt;" class="s35" d="m449.2 528.6q0.3 0.3 0.6 0.5c1.3 0.9 3.1 1.5 5.1 1.5 2 0 3.7-0.5 4.9-1.3q0.5-0.3 0.9-0.7 0 0 0 0h1.2v83c0 1.3-0.8 2.4-2.1 3.2-1.2 0.8-2.9 1.4-4.9 1.4-3.8 0-6.9-2.1-6.9-4.6v-83z"/>
							<path id="&lt;Path&gt;" class="s36" d="m449.8 529.1v80.7c0 2.5 2.5 4.5 5.4 4.5 1.5 0 2.9-0.5 3.9-1.3 1-0.8 1.6-2 1.6-3.2v-81.2q-0.4 0.4-0.9 0.7c-1.2 0.8-2.9 1.3-4.9 1.3-2 0-3.8-0.6-5.1-1.5z"/>
							<path id="&lt;Path&gt;" class="s37" d="m399.6 529.2v64l-15.7-3.6-0.1-1.2v-62.2z"/>
						</g>
						<path id="&lt;Path&gt;" class="s9" d="m388.4 574.1c0.7-2.9 1.4-6.3 1.8-9.3l14.4 5.5c2.1 6.9 11.2 12.6 11.9 20.9 0.4 5.1 2.9 10 1 10.7-5 2-4.9-8.7-6.8-10.4 0.4 2.9 2.7 18.3 1.9 19-1.7 1.6-4.8 1-6.3-0.9-0.8 0.8-2.2 1.3-3.5 1.2-1.1-0.1-2.2-1.1-3.1-1.1-1.3 0.1-2.4 1-4.2 0.5-1.2-0.3-2.2-1.3-3.2-1.9-3.7 1.7-3.6-3.3-4.4-5.7-0.9-2.6-1.3-21.8 0.5-28.5z"/>
						<path id="&lt;Path&gt;" class="s9" d="m399.5 508.2c2.8 0.6 7.4 1.1 11.4 0.6-2.3 23.4-5.7 58.9-4.7 71.9-4.1 0.3-10.8-0.2-17.3-0.3 0-9.9 0.7-49.9 0-76.5 4.7 1.8 5.5 3.2 10.6 4.3z"/>
					</g>
					<path id="&lt;Path&gt;" class="s9" d="m407.4 331.5c9.3-6.6 28.4 0.6 23.6 39.8-0.6 4.9-7.5 35-8.5 41-4.8 30.2-15.8 135.9-16.3 146.5-5.5-1.5-11.3-1.7-16.8-3-0.9-19-2.6-209.7 18-224.3z"/>
				</g>
			</g>
		</g>
		<g id="&lt;Group&gt;">
			<g id="&lt;Group&gt;">
				<path id="&lt;Path&gt;" class="s38" d="m738.5 415.3c-16.3 5.5-34.5 5.5-49.2-2.9l23.7-117.5c37.4 19.3 18.5 86.7 25.5 120.4z"/>
				<path id="&lt;Path&gt;" class="s39" d="m559.8 567.8c-1.2-26.9 1.8-58.5 9.2-96.2 8.2-42 20.4-85.4 36.2-129.2l0.3-0.9c5.6-15.5 10.9-30.1 18.5-44.5 1.2-2.2 4.6-7.6 8.5-12.5 6.5-8.4 15.2-15.9 15.2-15.9-1.6-2.1-4-3-6.6-2.7-2.7 0.4-7.2 2.1-15.4 12.5-4.6 5.9-8.4 11.9-9.6 14.3-8 15.1-13.5 30.1-19.2 46l-0.3 0.9c-16 44.2-28.3 88.2-36.6 130.6-7.4 37.8-10.5 69.7-9.5 97.1q4.7 0.2 9.3 0.5z"/>
				<g id="&lt;Group&gt;">
					<g id="&lt;Group&gt;">
						<g id="&lt;Group&gt;">
							<path id="&lt;Path&gt;" class="s40" d="m750.3 918.9c-5 3.6-40.8 2.8-52.2 0.9q0 0-0.1 0c-1.8-0.3-3.1-0.6-3.6-1q-0.1-0.1-0.1-0.1c-1.5-1.5-1.1-7.5 0.1-14.6 2-11.5 6.1-26 7.8-29.6l15.7 2c9.8 24.4 36.7 26.7 32.4 42.4z"/>
						</g>
						<g id="&lt;Group&gt;">
							<path id="&lt;Path&gt;" class="s16" d="m694.3 918.7q0 0 0.1 0.1c0.5 0.4 1.8 0.7 3.6 1q0.1 0 0.1 0.1c11.4 1.8 47.2 2.6 52.2-1 0.7-2.5 0.5-4.7-0.2-6.7q-0.1 0.4-0.2 0.8c-5 3.5-40.8 2.8-52.1 0.9q-0.1 0-0.1 0c-1.9-0.3-3.2-0.7-3.7-1.1 0 0-0.3 0-0.6-0.1-0.2 3 0 5.2 0.9 6z"/>
						</g>
						<path id="&lt;Path&gt;" class="s3" d="m694.8 831.1l25.7-12.3c-0.7 17.9 0.7 67.8-1.1 71.3 0 0-7.5 2.3-10.8 0.5-6.7-3.6-14.9-48.2-13.8-59.5z"/>
						<path id="&lt;Path&gt;" class="s40" d="m719.2 869.3c8.3 0.4 11.2 3.7 9.2 10.9-0.9 3.3-4 17.1-1.1 18l-16.2 0.5c-2.9-8.4-8.7-30.2 8.1-29.4z"/>
					</g>
					<g id="&lt;Group&gt;">
						<g id="&lt;Group&gt;">
							<path id="&lt;Path&gt;" class="s40" d="m568 918.9c5 3.6 40.8 2.8 52.1 0.9q0.1 0 0.1 0c1.9-0.3 3.2-0.6 3.7-1q0.1-0.1 0.1-0.1c1.5-1.5 1.1-7.5-0.1-14.6-2-11.5-6.1-26-7.8-29.6l-15.7 2c-9.8 24.4-36.7 26.7-32.4 42.4z"/>
						</g>
						<g id="&lt;Group&gt;">
							<path id="&lt;Path&gt;" class="s16" d="m624 918.7q0 0-0.1 0.1c-0.5 0.4-1.8 0.7-3.6 1q-0.1 0-0.2 0.1c-11.3 1.8-47.1 2.6-52.1-1-0.7-2.5-0.6-4.7 0.2-6.7q0.1 0.4 0.2 0.8c5 3.5 40.8 2.8 52.1 0.9q0.1 0 0.1 0c1.9-0.3 3.1-0.7 3.7-1.1 0 0 0.2 0 0.6-0.1 0.2 3-0.1 5.2-0.9 6z"/>
						</g>
						<path id="&lt;Path&gt;" class="s3" d="m623.4 831.1l-25.6-12.3c0.7 17.9-0.7 67.8 1 71.3 0 0 7.6 2.3 10.9 0.5 6.7-3.6 14.9-48.2 13.7-59.5z"/>
						<path id="&lt;Path&gt;" class="s40" d="m599.1 869.3c-8.3 0.4-11.2 3.7-9.2 10.9 0.9 3.3 4 17.1 1.1 18l16.2 0.5c2.9-8.4 8.7-30.2-8.1-29.4z"/>
					</g>
					<path id="&lt;Path&gt;" class="s41" d="m590.8 861.9l31.8-0.6c1.1-27.2 3.2-59.8 6-98.1 3.7-49.3 10.7-133.4 22.7-184.2q1-4.2 2-8 0.4-1.5 0.9-3 0-0.3 0.1-0.5 0.3-0.9 0.5-1.8 0.2 0.7 0.4 1.4 0.1 0.5 0.2 1 0.2 1 0.5 2c8.5 36.8 25 110.2 22.9 187.1-1 34.3 7.1 65.6 12.8 86.3 2.1 7.8 3.9 14.1 4.8 18.4l29.5-0.6c-1-20.4-3.4-59.4-6-104.8-2.7-49.1-2.4-137.3-7-207.8q-0.2-1.9-0.3-3.9c-1.3-18.3-2.9-35.3-5-50l-112.3-2.3c-1.4 0.6-1.4 20.3-1.6 51.2q0 1.9 0 3.8c-0.4 51.6-1.3 132-10 208.2-5.5 47.9 7 89.3 7.1 106.2z"/>
					<path id="&lt;Path&gt;" class="s42" d="m665.7 562.4l-10.5 4.7q0.1 0.5 0.2 1 0.2 1 0.5 2c8.5 36.8 25 110.2 22.9 187.1-1 34.3 7.1 65.6 12.8 86.3q0 0.1 0.1 0.2c-2.2-7.2-2-15.2-2.8-22.8-4.3-43.2-1.4-89.1-1.4-134 0-39.4-5.1-91.3-21.8-124.5z"/>
					<g id="&lt;Group&gt;">
						<g id="&lt;Group&gt;">
							<path id="&lt;Path&gt;" class="s43" d="m652.5 567.7q0.8 0.2 1.7 0.3 0.6 0 1.2 0.1 0.3 0 0.6 0c1.1 0.1 2.2 0.1 3.4 0.1 1.9 0 3.8 0 5.2 0.2l1.7 0.3 0.4-1.4c2.2-7.7 1.6-16.3 1.1-24.7q-0.2-1.9-0.3-3.7c-0.3-5-1.4-10.5-2.4-15.8-1.1-5.3-2.1-10.3-2.2-14.5l-3.6 0.1c0.2 4.4 1.2 9.5 2.3 14.9 1 5.2 2.1 10.6 2.4 15.5q0.1 1.8 0.2 3.7c0.5 7.6 1.1 15.6-0.6 22.5-1.3-0.1-2.8-0.1-4.2-0.1-1.1 0-2.3 0-3.3-0.1-1.4 0-2.6-0.2-3.5-0.5q-0.1 1.6-0.1 3.1z"/>
							<path id="&lt;Path&gt;" class="s43" d="m652.5 567.7c-0.2 3.9-0.6 7.6-1.2 11.3q1.4-5.8 2.9-11 0.6 0 1.2 0.1 0.2 1 0.5 2 0-1 0.1-2 0-1.5 0.1-3c0.4-14.9-1.7-30.8-3.9-44.3l-3.5 0.4c2.2 13.3 4.2 28.8 3.9 43.4q-0.1 1.6-0.1 3.1z"/>
						</g>
						<path id="&lt;Path&gt;" class="s43" d="m593.7 547.5q5.1 0.5 9.4 0.5c9 0 15.5-1.8 19.2-5.3 3.5-3.4 5.8-10.1 6.3-18.5 0.5-7.8-0.7-15.1-3.1-19l-3.2 1.9c1.9 3.2 3 10 2.6 16.8-0.4 7.4-2.4 13.4-5.2 16.1-4 3.8-13.1 5.1-26 3.7q0 1.9 0 3.8z"/>
						<path id="&lt;Path&gt;" class="s43" d="m694.5 525.3c0.5 8.4 2.8 15.2 6.4 18.5q4 3.8 12 4.9-0.2-1.9-0.3-3.9c-4.1-0.6-7.2-1.9-9.1-3.7-2.8-2.7-4.8-8.7-5.2-16-0.4-6.9 0.6-13.6 2.6-16.9l-3.2-1.9c-2.4 4-3.6 11.2-3.2 19z"/>
					</g>
					<path id="&lt;Path&gt;" class="s43" d="m690.7 869.5h39v-18h-39z"/>
					<path id="&lt;Path&gt;" class="s43" d="m587.4 868.8h39v-18h-39z"/>
					<path id="&lt;Path&gt;" class="s44" d="m653.3 571q0.4-1.5 0.9-3 0-0.3 0.1-0.5l-1 0.4q0 1.6 0 3.1z"/>
				</g>
				<g id="&lt;Group&gt;">
					<g id="&lt;Group&gt;">
						<path id="&lt;Path&gt;" class="s38" d="m584.3 351.1c2.2 12 3.8 25 5 38.2 0.6 7.4 1.2 14.9 1.6 22.4q0.5 8.9 0.7 17.6 0.1 1.4 0.1 2.8 0 0.6 0.1 1.2 0 2.9 0.1 5.7 0 0.9 0 1.9 0.1 1.8 0.1 3.5 0 1.2 0 2.3 0.1 1.1 0.1 2.3 0 1.3 0 2.7 0 1 0 2 0 0.7 0 1.5 0 3.7 0 7.3 0 1.3 0 2.6 0 0.2 0 0.4 0 0.7 0 1.4 0 0.9 0 1.8-0.1 4.4-0.1 8.5-0.1 1.5-0.1 2.9 0 0.3 0 0.5-0.1 1.6-0.1 3 0 1.5-0.1 2.8 0 0.8 0 1.6c-0.2 4.6-0.3 8.8-0.5 12.6q-0.1 0.4-0.1 0.8-0.2 3.1-0.3 5.7-0.1 1-0.2 1.9-0.1 1.6-0.2 2.9 0 0.2 0 0.3 0 0.2 0 0.3-0.1 0.6-0.1 1.1-0.1 0.4-0.1 0.8-0.1 0.4-0.1 0.9-0.1 0.8-0.2 1.5 0 0.3-0.1 0.5 0 0.1 0 0.2 0 0.1 0 0.3-0.1 0.3-0.1 0.5 0.2 0.1 0.5 0.2 0.1 0.1 0.3 0.2 0.4 0.1 0.9 0.2 0.1 0.1 0.3 0.2 0.2 0 0.3 0.1 0.2 0 0.4 0.1 0.3 0 0.6 0.1 0.2 0.1 0.5 0.1 0.2 0.1 0.4 0.1 0.4 0.1 0.7 0.2 0.2 0 0.4 0 0.1 0 0.2 0.1 0.2 0 0.4 0 0.9 0.1 1.8 0.2 0.3 0 0.6 0 0.5 0.1 1 0.1 0.2 0 0.4 0c8.4 0.1 16.6-2.5 23.2 1.2 52.4 30 75.9 13.1 88.3 6q0.1-0.1 0.1-0.3 0.1-0.3 0.1-0.6c0.4-1.5 0.6-3.5 0.8-5.9q0.1-0.4 0.1-0.7 0.1-0.9 0.2-1.9 0-0.3 0-0.7 0.1-1 0.1-2 0.1-0.6 0.1-1.2 0.1-1 0.1-1.9 0-0.5 0-1 0.1-1.3 0.1-2.6 0.1-0.5 0.1-1.1 0 0 0-0.1 0-0.6 0-1.2 0-0.7 0.1-1.5 0-0.3 0-0.7 0-0.6 0-1.3 0-0.6 0-1.1 0-0.4 0-0.8 0.1-0.5 0.1-1.1v-0.1q0-0.4 0-0.8 0-0.2 0-0.5 0-1.2 0-2.4 0-0.4 0-0.8 0-1.5 0-3.1 0-0.4 0-0.8c0.1-6.6 0-13.5-0.1-20-0.1-4.1-0.2-8-0.3-11.7-0.2-4.6-0.3-8.8-0.5-12.1q-0.3-5.6-0.5-10.6-0.2-8.2-0.2-15.1c0-9.1 0.4-16.8 1.1-23.3 2.9-30 10.5-37.1 10.5-59.6 0-22.9 2.9-37.4-19.4-51.7-4.4-2.8-9.9-6.8-14.8-9.5q-0.8-0.5-1.7-1l-40.5-14.6c0.5 1.6-0.7 3.2-2.9 4.9-9.5 7.1-38 14.7-43.1 17.7-7.4 4.5-12 8-15.2 16.4-1.1 2.6-2.1 5.5-2.8 9-1.7 8.1-1.9 19.9 1.8 41.1z"/>
						<g id="&lt;Group&gt;">
							<g id="&lt;Group&gt;">
								<path id="&lt;Path&gt;" class="s9" d="m712.4 224.3c0.2-3 1-6.8 1-6.8 1.4-6.5 8.8-11.5 12.3-7.8 3.6 3.6 3.5 10.2 2.2 14.2-1.3 3.9-5.6 10.9-10.9 9.6-4.5-1.1-4.7-6.1-4.6-9.2z"/>
								<path id="&lt;Path&gt;" class="s10" d="m715.8 218.2c0.1-0.7 1.7-3.1 2.1-3.7 2.9-4.8 8-3.2 8.3 2.1-1.9-4.6-5.1-1-7 1.4 1.6 0 2.4 3.3 2 4.5-0.6 2.3-2.5 2.7-4.4 3v-0.2c0.3-1.6 2.3-3.8 1-5.9-0.7-1.2-2.2 0.1-2-1.2z"/>
							</g>
							<path id="&lt;Path&gt;" class="s40" d="m718 163c6.2 4.6 8.9 13.1 8.6 20.9-0.3 7.2-4.4 27.6-9.9 32-0.4-6-1-25.5-3.8-31-1.9-3.6-5.4-8.8-8.9-11.1z"/>
							<g id="&lt;Group&gt;">
								<path id="&lt;Path&gt;" class="s9" d="m648.4 220.4c1.4 6.9 1.5 14.2 1.1 21.6-0.6 9.8-2.7 17.6-5.9 24.9 2.7 5.4 7.4 12.4 17.5 19.4 5.8 4.1 14.1 7.5 21.3 6.5 8.5-1.2 9.9-8 6.3-15.2-1.9-3.9-2-3.8-1.8-8.2q0-0.7 0.1-1.5c0.1-4 0.5-9.3 0.6-11.9l-39.1-37.3-0.6-0.5q0.3 1.1 0.5 2.2z"/>
								<path id="&lt;Path&gt;" class="s10" d="m648.4 220.4c1.4 6.9 2.1 6.5 1.7 13.9 4.7 36.8 34.2 36.4 36.9 33.6 0.1-4 0.5-9.3 0.6-11.9l-39.1-37.3q0 0.8-0.1 1.7z"/>
							</g>
							<path id="&lt;Path&gt;" class="s9" d="m719.6 194.7c1.4-23.4-19.8-49.5-46.6-41.6-5.7 1.6-14.5 7.5-18 12.8 0 0-4.3 13.7-6.3 37.8-1.1 13-0.2 15.3 0.9 31.5 1.2 19.5 30.9 33.1 43.4 30.5 12.9-2.8 19.2-19 22.6-26.5 4.7-10.6 3.3-33.2 4-44.5z"/>
							<g id="&lt;Group&gt;">
								<path id="&lt;Path&gt;" class="s10" d="m677.4 204.7c-1-1.8-2.5-3.3-4.3-3-2.2 0.2-4.5 1.7-6 3.3-0.7 0.6-1.7 2.1-2.4 3.3-1.5 2.6-1 4.1-1 4.1 0.5 0.1 0.9-1.9 1.5-1.8 3.3 0.6 7.8 1 11.4 0.4q1.1-0.2 2-0.5c0.3-1.6-0.2-3.9-1.2-5.8z"/>
								<g id="&lt;Group&gt;">
									<path id="&lt;Path&gt;" class="s16" d="m678.8 212.8q-0.9 0.3-2 0.4c-3.6 0.5-8.1 0.2-11.4-0.3q-1-0.1-1.7-0.3c0 0 0.5-0.7 1.1-1.5 0.8-1 1.8-2.2 2.5-2.7 1.5-1.2 3.8-2.4 6-2.7 1.8-0.1 3.3 1 4.3 2.5 1 1.5 1.5 3.4 1.2 4.6z"/>
									<path id="&lt;Path&gt;" class="s40" d="m677.6 208.9c0 1.5-0.3 3-0.8 4.3-3.6 0.5-8.1 0.2-11.4-0.3q-0.4-0.8-0.6-1.8c0.8-1 1.8-2.2 2.5-2.7 1.5-1.2 3.8-2.4 6-2.7 1.8-0.1 3.3 1 4.3 2.5q0 0.3 0 0.7z"/>
									<path id="&lt;Path&gt;" class="s16" d="m669.9 210.7c0 0.5-0.4 1-0.8 1-0.5 0-0.9-0.5-0.9-1 0-0.5 0.4-1 0.9-1 0.4 0 0.8 0.5 0.8 1z"/>
								</g>
							</g>
							<g id="&lt;Group&gt;">
								<path id="&lt;Path&gt;" class="s10" d="m713.5 204.2c-1-1.9-2.4-3.3-4-3.1-2 0.3-4.1 1.8-5.5 3.3-0.6 0.7-1.6 2.1-2.2 3.4-1.4 2.5-1 4.1-1 4.1 0.5 0.1 0.9-1.9 1.4-1.8 3.1 0.6 7.2 0.9 10.5 0.3q1-0.2 1.9-0.4c0.2-1.6-0.2-3.9-1.1-5.8z"/>
								<g id="&lt;Group&gt;">
									<path id="&lt;Path&gt;" class="s16" d="m714.7 212.3q-0.8 0.2-1.8 0.4c-3.3 0.4-7.5 0.2-10.5-0.3q-0.9-0.2-1.6-0.3c0 0 0.5-0.7 1.1-1.6 0.7-0.9 1.6-2.1 2.2-2.7 1.4-1.2 3.6-2.4 5.6-2.6 1.6-0.2 3 1 3.9 2.5 1 1.5 1.4 3.3 1.1 4.6z"/>
									<path id="&lt;Path&gt;" class="s40" d="m713.6 208.3c0 1.6-0.2 3.1-0.7 4.4-3.3 0.4-7.5 0.2-10.5-0.3q-0.3-0.9-0.5-1.9c0.7-0.9 1.6-2.1 2.2-2.7 1.4-1.2 3.6-2.4 5.6-2.6 1.6-0.2 3 1 3.9 2.5q0 0.3 0 0.6z"/>
									<path id="&lt;Path&gt;" class="s16" d="m706.6 210.2c0 0.5-0.4 0.9-0.8 0.9-0.4 0-0.8-0.4-0.8-0.9 0-0.6 0.4-1 0.8-1 0.4 0 0.8 0.4 0.8 1z"/>
								</g>
							</g>
							<path id="&lt;Path&gt;" class="s10" d="m694.9 217.5c-0.7 1.2 0.1 11.3 0.8 13.3-1.6 1.2-5.4 1-7 2.2 2.7 0.2 5.8 0.5 9.6-1.1z"/>
							<g id="&lt;Group&gt;">
								<path id="&lt;Path&gt;" class="s40" d="m659.5 202.8c4.9-1.5 10.4-0.9 15.6-0.3 2.2 0.3 5.9 1.7 6.5-1 2.8-12.4-25.8-7.5-22.1 1.3z"/>
							</g>
							<g id="&lt;Group&gt;">
								<path id="&lt;Path&gt;" class="s40" d="m719.7 203c-4.2-1.5-9.1-0.9-13.6-0.4-1.9 0.3-5.1 1.6-5.7-1-2.4-11.5 22.5-6.9 19.3 1.4z"/>
							</g>
							<g id="&lt;Group&gt;">
								<path id="&lt;Path&gt;" class="s10" d="m674.7 235.4c5.5 8.1 12 11 15.6 11q3.4 0 5.9-1.3c2.8-1.4 4.8-3.8 6.1-7.1 0 0-1.9 0.6-5.2 0.9-5.1 0.4-13.3 0.2-22.4-3.5z"/>
								<path id="&lt;Path&gt;" class="s16" d="m674.7 235.4c5.5 8.1 12 11 15.6 11q3.4 0 5.9-1.3c0.1-2.1 0.4-4.2 0.9-6.2-5.1 0.4-13.3 0.2-22.4-3.5z"/>
							</g>
							<g id="&lt;Group&gt;">
								<path id="&lt;Path&gt;" class="s45" d="m640.7 170.8c-5.9 17.9 4.5 38.8 6.5 49.8 2.2-3.9 5-6.3 5.9-10.8 1.3-6.8-0.1-13.7 4.8-16.5 6.9-3.8 5.4-4.7 7.9-11.8 1-3.1 7-8.1 9.6-6.8 5.4 2.7 11.9 4.4 18.2 5.3 12.4 1.9 23.9 1.2 23.9 1.2 3.4-1.1 21.1-6.2 20.7-29.6-3.3 5.1-7.7 7.1-13.6 6.7 2.4-5.2 6.5-15.9 4-21.3-1.7 13-20.8 7.8-28.4 6.8-43-6-51 7.6-53.3 13.5-0.4 1-0.7 1.8-0.9 2.3-3.7-2.7-7.7-2.8-11.9-1.9q3 2.6 5.8 5.3c-2.3 0.8-5.1 0.8-6.7 3.3 3.4-1 8.7 0.7 7.5 4.5z"/>
								<path id="&lt;Path&gt;" class="s46" d="m640.7 170.8c-5.9 17.9 4.5 38.8 6.5 49.8 2.2-3.9 5-6.3 5.9-10.8 1.3-6.8-0.1-13.7 4.8-16.5 6.9-3.8 5.4-4.7 7.9-11.8 1-3.1 7-8.1 9.6-6.8 5.4 2.7 11.9 4.4 18.2 5.3-4.4-3.2-9.3-8.6-12.7-9.9-6.9-2.9-13-2.3-19.7-0.2 0.6-2.8 2.9-5.1 3.8-7.6-4.1 0.2-7.6 3.6-10.7 6.1-0.1-2.7 0.1-5.3-0.9-7.7-1.2 1-2.2 2.5-3.4 3.4-0.7-2.7-1.8-4.9-3.1-6.8-0.4 1-0.7 1.8-0.9 2.3-3.7-2.7-7.7-2.8-11.9-1.9q3 2.6 5.8 5.3c-2.3 0.8-5.1 0.8-6.7 3.3 3.4-1 8.7 0.7 7.5 4.5z"/>
							</g>
							<g id="&lt;Group&gt;">
								<path id="&lt;Path&gt;" class="s9" d="m651.7 221.7c-0.1-3.1-1-7.2-1-7.2-1.5-7-9.3-12.2-13.1-8.4-3.8 3.9-3.8 11-2.4 15.2 1.4 4.2 6 11.6 11.7 10.3 4.8-1.2 5-6.5 4.8-9.9z"/>
								<path id="&lt;Path&gt;" class="s10" d="m648.2 215.2c-0.1-0.8-1.8-3.3-2.2-3.9-3.2-5.1-8.6-3.4-8.9 2.2 1.9-4.9 5.4-1.1 7.5 1.5-1.8 0.1-2.6 3.5-2.2 4.9 0.7 2.4 2.7 2.8 4.7 3.2v-0.2c-0.3-1.8-2.5-4.1-1.1-6.4 0.8-1.3 2.3 0.1 2.2-1.3z"/>
							</g>
						</g>
					</g>
					<path id="&lt;Path&gt;" class="s47" d="m591.6 429.3q0.1 1.4 0.1 2.8 0 0.6 0.1 1.2 0 2.9 0.1 5.7 0 0.9 0 1.9 0.1 1.8 0.1 3.5 0 1.2 0 2.3 0.1 1.1 0.1 2.3 0 1.3 0 2.7c5.6-0.5 11.3-0.5 17.2 0.7 14.3 2.8 28.5 6.9 42.5 9.9 20.8 4.3 41.7 4.2 60.7-2.8-0.2-4.6-0.3-8.8-0.5-12.1q-0.3-5.6-0.5-10.6c-19.2 7.2-38.6 7.4-59.7 3-14-2.9-28.2-7.1-42.5-9.9-6.1-1.2-11.9-1.1-17.7-0.6z"/>
					<path id="&lt;Path&gt;" class="s47" d="m589.3 389.3c0.6 7.4 1.2 14.9 1.6 22.4 3.7 0 7.5 0.3 11.3 1 16 2.8 31.8 7 47.5 9.9 21 3.9 42 4.2 61.6-0.9 0-9.1 0.4-16.8 1.1-23.3-20.2 5.9-40.7 5.9-62.7 1.7-15.7-2.9-31.5-7.1-47.5-9.8-4.4-0.8-8.7-1.1-12.9-1z"/>
					<g id="&lt;Group&gt;" style="opacity: .4;mix-blend-mode: multiply">
						<path id="&lt;Path&gt;" class="s38" d="m584.3 351.1c2.2 12 3.8 25 5 38.2 0.6 7.4 1.2 14.9 1.6 22.4q0.5 8.9 0.7 17.6 0.1 1.4 0.1 2.8 0 0.6 0.1 1.2 0 2.9 0.1 5.7 0 0.9 0 1.9 0.1 1.8 0.1 3.5 0 1.2 0 2.3 0.1 1.1 0.1 2.3 0 1.3 0 2.7 0 1 0 2 0 0.7 0 1.5 0 3.7 0 7.3 0 1.3 0 2.6 0 0.2 0 0.4 0 0.7 0 1.4 0 0.9 0 1.8-0.1 4.4-0.1 8.5-0.1 1.5-0.1 2.9 0 0.3 0 0.5-0.1 1.6-0.1 3 0 1.5-0.1 2.8 0 0.8 0 1.6c-0.2 4.6-0.3 8.8-0.5 12.6q-0.1 0.4-0.1 0.8-0.2 3.1-0.3 5.7-0.1 1-0.2 1.9-0.1 1.6-0.2 2.9 0 0.2 0 0.3 0 0.2 0 0.3-0.1 0.6-0.1 1.1-0.1 0.4-0.1 0.8-0.1 0.4-0.1 0.9-0.1 0.8-0.2 1.5 0 0.3-0.1 0.5 0 0.1 0 0.2 0 0.1 0 0.3-0.1 0.3-0.1 0.5 0.2 0.1 0.5 0.2 0.1 0.1 0.3 0.2 0.4 0.1 0.9 0.2 0.1 0.1 0.3 0.2 0.2 0 0.3 0.1 0.2 0 0.4 0.1 0.3 0 0.6 0.1 0.2 0.1 0.5 0.1 0.2 0.1 0.4 0.1 0.4 0.1 0.7 0.2 0.2 0 0.4 0 0.1 0 0.2 0.1 0.2 0 0.4 0 0.9 0.1 1.8 0.2 0.3 0 0.6 0 0.5 0.1 1 0.1 0.2 0 0.4 0c8.4 0.1 16.6-2.5 23.2 1.2 52.4 30 75.9 13.1 88.3 6q0.1-0.1 0.1-0.3 0.1-0.3 0.1-0.6c0.4-1.5 0.6-3.5 0.8-5.9q0.1-0.4 0.1-0.7 0.1-0.9 0.2-1.9 0-0.3 0-0.7 0.1-1 0.1-2 0.1-0.6 0.1-1.2 0.1-1 0.1-1.9 0-0.5 0-1 0.1-1.3 0.1-2.6 0.1-0.5 0.1-1.1 0 0 0-0.1 0-0.6 0-1.2 0-0.7 0.1-1.5 0-0.3 0-0.7 0-0.6 0-1.3 0-0.6 0-1.1 0-0.4 0-0.8 0.1-0.5 0.1-1.1v-0.1q0-0.4 0-0.8 0-0.2 0-0.5 0-1.2 0-2.4 0-0.4 0-0.8 0-1.5 0-3.1 0-0.4 0-0.8c0.1-6.6 0-13.5-0.1-20q-2 1.6-4.1 3c-17 11.4-49.2 17.3-66.2 3.4-14.6-11.8-22.7-31.3-27.4-49.3-10.1-38.8 11.3-61.8-2.2-102.3-4.7-14-26.3 0.6-30.4-16-1.7 8.1-1.9 19.9 1.8 41.1z"/>
					</g>
				</g>
				<g id="&lt;Group&gt;">
					<g id="&lt;Group&gt;">
						<g id="&lt;Group&gt;">
							<path id="&lt;Path&gt;" class="s9" d="m590.1 513.2l12.1-4.8c7.4 14 30.1 27.2 16.4 34.3-6.3 3.2-15 5.1-18.7 1.7-6.5-5.8-9.4-22.8-9.8-31.2z"/>
							<path id="&lt;Path&gt;" class="s9" d="m548.3 418.9c9.3-1.7 23.7 8 27.6 15.2 13 24.5 15.5 57.5 30.4 80.7l-13.2 9.5c-20-22.9-41.9-51.3-51.2-80.2-2.5-7.8-4.9-23.3 6.4-25.2z"/>
						</g>
						<path id="&lt;Path&gt;" class="s9" d="m548.9 373.2c2.8-11.1 6.6-18.4 10.9-29 3.2-7.7 6.2-21.1 13-26.3l26.7 38.9c-4.8 5.4-28.2 81-35.1 86.1-7.7 5.7-16.2 11.2-21.2 4.1-10.1-14.2 1.8-58.2 5.7-73.8z"/>
					</g>
					<path id="&lt;Path&gt;" class="s9" d="m617.2 520c3.5 2.3 7.5 6.1 12.1 7 6.7 1.3 3 6.8-2.6 6.8-4 0-11.9-5.4-13-5l-11.2-13.4c3.7 1.6 11.1 2.1 14.7 4.6z"/>
				</g>
				<g id="&lt;Group&gt;">
					<g id="&lt;Group&gt;">
						<path id="&lt;Path&gt;" class="s39" d="m609.5 564.1c4-6.8 4.7-14 1.9-20.2-2.8-6.4-9.1-11.1-17.2-12.9-17.4-3.7-20.4 4.3-24.3 14.4-0.7 2-1.5 4.1-2.4 6.3l5.5 2.3c1-2.3 1.8-4.5 2.5-6.5 3.7-9.6 5.1-13.3 17.5-10.6 6.2 1.3 10.9 4.8 13 9.4 1.9 4.4 1.3 9.6-1.7 14.8z"/>
						<g id="&lt;Group&gt;">
							<path id="&lt;Path&gt;" class="s39" d="m517.2 644.6c26 16.5 57.7 29.5 88.2 27.5l24.7-110c-4.5-2.3-11.8-4.6-20.4-6.9q-4.1-1-8.4-2c-9.8-2.2-20.3-4.1-29.8-5.2-3.2-0.5-6.3-0.5-9.1-1-4.9-0.9-11.7 0.6-14.6 3.6-14.4 20.1-32.9 76.2-30.6 94z"/>
							<path id="&lt;Path&gt;" class="s48" d="m612.3 575.3c6.5-12.3 19-22.4 24.4-3 4.2 15.2-6.4 86.1-14.8 100.3 0 0-22.5 4.3-27-2.2-9.8-14.2 10.4-81.7 17.4-95.1z"/>
							<path id="&lt;Path&gt;" class="s48" d="m576.8 614.6l7.8 0.8c1.4-13.9 4.1-24.4 9.6-36.2 4-8.8 8.7-15 14.1-22.2q0.7-0.9 1.4-1.8-4.1-1-8.4-2c-5.2 6.9-10.1 13.6-14.3 22.7-5.7 12.6-8.8 24.1-10.2 38.7z"/>
							<path id="&lt;Path&gt;" class="s48" d="m541.6 603.4l7.8 0.7c1.4-13.8 4.2-24.3 9.6-36.2 3.6-7.8 7.7-13.6 12.5-19.9-3.2-0.5-6.2-0.8-9.1-1-3.8 5.3-7.4 10.8-10.6 17.7-5.7 12.5-8.8 24.1-10.2 38.7z"/>
						</g>
					</g>
					<path id="&lt;Path&gt;" class="s49" d="m616.6 585.6c-1.2 4 1.1 8.2 5.1 9.3l0.7 0.2c4 1.2 8.1-1.1 9.3-5.1l2.9-10c1.2-4-1.1-8.2-5.1-9.3l-0.7-0.2c-4-1.2-8.1 1.1-9.3 5.1z"/>
					<path id="&lt;Path&gt;" class="s39" d="m619.9 579.9c14.7-23.2 27.8-52.5 39.9-89.4 13.3-40.8 23.7-84.9 30.8-130.9l0.1-1c2.5-16.3 4.9-31.8 4.9-48.1 0-2.4-0.6-8.8-1.7-15-2-10.4-6.5-21.1-6.5-21.1 2.6-1.1 5.3-0.8 7.6 0.7 2.4 1.6 5.8 5.2 8.4 18.3 1.4 7.3 1.9 14.4 1.9 17.1 0 17.1-2.4 32.9-5 49.6l-0.1 0.9c-7.2 46.6-17.6 91.2-31.2 132.6-12.1 36.9-25.2 66.5-40 90.2q-4.5-2-9.1-3.9z"/>
				</g>
				<path id="&lt;Path&gt;" class="s38" d="m575.8 310.6c7-12.1 26.9-40.1 39.8-17.6 4.8 8.5 4.2 23.2 2.3 32.3-2.9 14.4-6.5 30.2-13.3 43.6l-11.5 29.5c-12.7-2.7-35.8-9.7-47.6-15.6 6.8-24.9 17.8-50.9 30.3-72.2z"/>
			</g>
			<path id="&lt;Path&gt;" class="s9" d="m767.3 449c-2.7 7.8-13.3 8.4-17.9 7.6-6.2-1.1-12.7-5.8-17.3-13.8z"/>
			<g id="&lt;Group&gt;">
				<path id="&lt;Path&gt;" class="s50" d="m623 445.8c0 2.7 2.2 4.8 4.8 4.8h185.7c2.7 0 4.8-2.1 4.8-4.8 0-2.6-2.1-4.8-4.8-4.8h-185.7c-2.6 0-4.8 2.2-4.8 4.8z"/>
				<g id="&lt;Group&gt;">
					<g id="&lt;Group&gt;">
						<path id="&lt;Path&gt;" class="s50" d="m711.2 354.6l-16.7 85.4c-0.6 3.2 1.4 5.8 4.6 5.8h114.7c3.1 0 6.3-2.6 6.9-5.8l18.3-85.4c0.7-3.2-1.4-5.7-4.6-5.7h-116.3c-3.2 0-6.3 2.5-6.9 5.7z"/>
						<path id="&lt;Path&gt;" class="s51" d="m717 354.6l-16.8 85.4c-0.6 3.2 1.5 5.8 4.6 5.8h109c3.1 0 6.3-2.6 6.9-5.8l18.3-85.4c0.7-3.2-1.4-5.7-4.6-5.7h-110.5c-3.2 0-6.3 2.5-6.9 5.7z"/>
					</g>
					<path id="&lt;Path&gt;" class="s50" d="m764.4 384.4c-0.9 4.1 2.7 7.5 8 7.5 5.2 0 10.2-3.4 11.1-7.5 0.8-4.1-2.8-7.4-8.1-7.4-5.2 0-10.2 3.3-11 7.4z"/>
				</g>
			</g>
			<g id="&lt;Group&gt;">
				<path id="&lt;Path&gt;" class="s9" d="m758.1 444c-2.4-5.1-0.1-15.4 7.3-7.1 6.9 7.7-2.1 16.6-4.6 18.1-3.8 2.4-16.7 0.5-2.7-11z"/>
				<path id="&lt;Path&gt;" class="s9" d="m767.2 442.8c-2-5.9-0.1-17.6 6.2-8.2 5.9 8.9-1.8 19-3.9 20.8-3.3 2.7-14.1 0.6-2.3-12.6z"/>
				<path id="&lt;Path&gt;" class="s9" d="m774.3 443.3c-2.1-5.9-0.1-17.6 6.1-8.1 5.9 8.8-1.7 19-3.8 20.7-3.3 2.8-14.2 0.6-2.3-12.6z"/>
				<path id="&lt;Path&gt;" class="s9" d="m781.3 443.3c-2-5.9 0-17.6 6.2-8.2 5.9 8.9-1.8 19-3.9 20.8-3.2 2.7-14.1 0.6-2.3-12.6z"/>
			</g>
		</g>
		<g id="&lt;Group&gt;">
			<g id="&lt;Group&gt;">
				<g id="&lt;Group&gt;">
					<path id="&lt;Path&gt;" class="s52" d="m357.1 454c-4.3 10.6-5.2 24.8-5.2 36.5l16.3 5.1c0-12.5-3.3-44.5-11.1-41.6z"/>
					<path id="&lt;Path&gt;" class="s52" d="m374.4 508.6c-1-3.5-2.7-8.9-3.3-12.5-1-5.4-4.5-9-8-13.1l-6 15.8c-1.2 7.4 6.2 10.3 9.6 14.4 2.2 2.7 9.4 10.6 11.3 3.6 0.5-2.1-3.1-6.1-3.6-8.2z"/>
				</g>
				<g id="&lt;Group&gt;">
					<g id="&lt;Group&gt;">
						<path id="&lt;Path&gt;" class="s53" d="m309.1 914.3c-13.2 7.5-64.8 1.8-69.9-1.1-0.3-0.7-0.4-1.7-0.4-2.8-0.1-1.2-0.1-2.5 0-3.9 0.3-5.3 1.1-11.5-0.4-11.4l29.3-8.6c4.2 8.1 5.7-0.9 11.3 6 4.7 5.8 13.5 8.6 22.2 9.8 4.2 0.5 7.1 2.1 8.7 4q1 1.2 1.3 2.5c0.7 2.2-0.1 4.3-2.1 5.5z"/>
						<path id="&lt;Path&gt;" class="s16" d="m311.2 908.8c-0.1 1.5-0.9 2.8-2.3 3.6-13.2 7.5-64.7 1.8-69.9-1.1q-0.2-0.4-0.2-0.9c-0.1-1.2-0.1-2.5 0-3.9 6.2 3 56.7 8.4 69.7 1q0.8-0.5 1.4-1.2 1 1.2 1.3 2.5z"/>
						<path id="&lt;Path&gt;" class="s54" d="m278 883.4c-1.8-4.3-3.8-5.7-9.6-5.3-4.7 0.4-8.6 5.6-7.9 10.1 0.5 3.7-1 5.8 0.3 9l25.7 0.9c-4.5-5.2-6.8-10.4-8.5-14.7z"/>
					</g>
					<path id="&lt;Path&gt;" class="s55" d="m344.9 598c-7.7 28.6-54.3 218.4-65.8 274.5-0.2 2.4-0.4 4.8-0.6 7.1-0.3 5.5-2.9 6.8-8 7.9-5.5 1.2-11.1 2.4-16.4 5.1q-0.1 0-0.2 0.1-0.9 0.5-2 1.1c-3.9 2.3-9.1 5.4-12.1 2.7-2.9-2.6-1.5-16.3-1.4-19.9 2.8-54 20.6-115.3 21.6-120.1 13.1-64.3 14.5-152 13-211-0.4-14.3-10.3-21.1-8.6-33.4 3.2-23.8 6.2-31.3 18.1-57.8l84.9 53.5c-3.3 31.6-14.3 59.4-22.5 90.2z"/>
					<g id="&lt;Group&gt;">
						<path id="&lt;Path&gt;" class="s54" d="m348.9 486.9c0 20.7-1.9 42.1-5.4 58.8l-0.2 1.1-1 0.2c-1.3 0.3-3.9 0.7-6.6 0.9-1.1 0.1-2.3 0.1-3.4 0.2q0.1-1.7 0.1-3.4c1.1-0.1 2.3-0.1 3.4-0.2 1.7-0.1 3.3-0.3 4.6-0.6 3.3-16.3 5.1-37 5.1-57z"/>
						<path id="&lt;Path&gt;" class="s54" d="m331.3 589c0 0 0.6-32.5 1-40.9q0.1-1.7 0.1-3.4c0.6-17.6-0.3-34.1-4.1-42.2l9.8-1.7c4.3 9.4-6.2 83.2-6.8 88.2z"/>
					</g>
					<g id="&lt;Group&gt;">
						<path id="&lt;Path&gt;" class="s54" d="m341.3 917.7c-15.1 7.5-74.2 1.8-80.1-1.1-0.3-0.7-0.4-1.6-0.5-2.8 0-1.1 0-2.5 0.1-3.9 0.3-5.3 1.2-11.5-0.5-11.4l33.6-8.6c4.8 8.1 6.6-0.9 12.9 6 5.4 5.8 15.5 8.6 25.4 9.8 4.9 0.5 8.2 2.1 10 4q1.2 1.2 1.6 2.5c0.7 2.2-0.2 4.3-2.5 5.5z"/>
						<path id="&lt;Path&gt;" class="s16" d="m343.8 912.2c-0.2 1.5-1.1 2.8-2.7 3.6-15.1 7.5-74.2 1.8-80.1-1.1q-0.2-0.4-0.3-0.9c0-1.1 0-2.5 0.1-3.9 7.1 3 65 8.5 79.8 1q1-0.5 1.6-1.2 1.2 1.2 1.6 2.5z"/>
						<g id="&lt;Group&gt;">
							<path id="&lt;Path&gt;" class="s56" d="m330.4 583.4c-2.7 29.5-29.3 236.4-35 293.3 0.1 2.5 0.1 4.9 0.3 7.2 0.2 5.4-2.2 7.1-7.2 8.6-5.4 1.8-10.8 3.6-15.8 6.8q-0.1 0.1-0.2 0.1-0.9 0.6-1.9 1.4c-3.6 2.6-8.4 6.3-11.8 3.8-3.1-2.2-3.4-15.9-3.4-19.6 0.1-7.5 1.5-21.9 1.9-27h0.3c0.6-29.8 5.5-69.6 5.9-74.4 6.4-65.3-0.4-172.9-8.1-231.5-1.8-14.2-12.4-19.9-12-32.3 0.8-24 3-31.8 12-59.3l81.4 14.3c0 31.8-3.6 78.7-6.4 108.6z"/>
							<path id="&lt;Path&gt;" class="s54" d="m278.4 676.3c-0.5 13-0.7 26.3-0.9 39.1-0.3 17-0.5 34.6-1.4 51.7-0.6 13.1-1.9 26.3-3.1 39.1-1.1 12-2.2 24.5-2.9 36.8-0.9 16.4 0.7 40.1 2.6 56.3q-0.1 0-0.2 0.1-0.9 0.6-1.9 1.4-0.1-0.3-0.1-0.8c-1.9-16.3-3.6-40.6-2.7-57.1 0.7-12.4 1.9-24.9 3-36.9 1.2-12.8 2.4-26 3.1-39 0.8-17.1 1.1-34.7 1.3-51.6 0.3-12.9 0.5-26.2 0.9-39.1 0.7-18.8-0.6-37.9-1.8-56.3-0.9-14.9-1.9-30.2-1.9-45.4 0-9.5-0.6-19.3-1.1-28.8-1-17.5-2.1-35.7 0.3-53.2l2.2 0.3c-2.3 17.3-1.3 35.4-0.3 52.8 0.5 9.5 1.1 19.3 1.1 28.9 0 15.1 1 30.4 2 45.2 1.2 18.5 2.4 37.6 1.8 56.5z"/>
						</g>
						<path id="&lt;Path&gt;" class="s54" d="m305.6 886.9c-2-4.4-4.2-5.8-11-5.3-5.3 0.3-9.8 5.5-9 10 0.6 3.7-1.1 5.8 0.3 9l29.5 0.9c-5.1-5.2-7.7-10.4-9.8-14.6z"/>
					</g>
					<path id="&lt;Path&gt;" class="s54" d="m277.5 539q-1.2 0-2.4 0-1.1 0-2.1 0v-3.4q1 0 2.1 0c8.8 0.1 19.7 0.2 25.1-7.8 4.8-7.1 4.6-18.7 4.4-28q0-2.5 0-4.8h3.3q0.1 2.2 0.1 4.7c0.2 9.8 0.4 22-5 30-5.9 8.6-16.7 9.3-25.5 9.3z"/>
				</g>
				<g id="&lt;Group&gt;">
					<path id="&lt;Path&gt;" class="s57" d="m357.6 355.7c6.8-2.5 13.4-5.3 19.7-8.4 0-18.5-7.3-39.6-13.7-56.7-2.6-7.1-6.9-15.8-12.3-21-4.6-4.5-31.2-11.2-31.2-11.2-12.9 4.8-17.3 18.9-18.2 25.1-1.5 9.3 0.3 20.5 2.4 29.6 4 17.1 10.2 34.2 17.1 50.2 12.3-0.6 24.6-3.5 36.2-7.6z"/>
					<path id="&lt;Path&gt;" class="s58" d="m369.6 343.9c0.1 9.9-2.9 9.4-4.5 19.3q-0.1 0.5-0.2 1 0 0.2 0 0.4c-3.3 23.4-0.4 139.1-0.5 141.7q-1.6 0.5-3.2 0.9c-18.1 4.2-34.7 5.3-55.3 3.1-25.4-2.7-45.6-10.7-66.1-23 21-39.8 7.8-101.3 1.9-143.9-2.8-20.4-10.1-54.9-3-74.9q0.3-0.6 0.5-1.3c6.6-17.2 18.2-25.7 39.3-25.3h0.7l55.2 10.9c3.9 7.7 12.5 14.6 17.5 21.9 5.1 7.5 17.6 58.5 17.7 69.2z"/>
					<path id="&lt;Path&gt;" class="s57" d="m365.1 363.2q-0.1 0.5-0.2 1 0 0.2 0 0.4c-3.3 23.4-0.4 139.1-0.5 141.7q-1.6 0.5-3.2 0.9c-21.9 6.3-30.4 5.7-55.3 3.1-25.4-2.7-45.6-10.7-66.1-23 21-39.8 7.8-101.3 1.9-143.9-2.8-20.4-10.1-54.9-3-74.9q0.3-0.6 0.5-1.3l18.1-8.4c-5.4 10.5 34 24.8 35.3 36.8 1.6 14.6 3.4 31.3 3.8 46.1 0.6 18.4 8.3 29.1 31.7 29.1 12.5 0 25.3-2.6 37-7.6z"/>
				</g>
				<g id="&lt;Group&gt;">
					<path id="&lt;Path&gt;" class="s59" d="m327.1 247.6l-25.4 24.3c5.5 11.2 32.6 20.7 42.9 12.9 12.9-9.8-9.7-31.2-17.5-37.2z"/>
					<g id="&lt;Group&gt;">
						<g id="&lt;Group&gt;">
							<path id="&lt;Path&gt;" class="s60" d="m362.3 142.9c-2.6-2.7-6.6-1.4-9.5-3l-2.6 2.4c2.2 2.2 3.6 3.5 5 6.6 1.3 2.7 2.6 5.4 3.4 8.4 1.7 5.9 0.6 12.2 2 17.9 3.5-5.3 5.3-12 6.8-18.4 2.2-8.7-2.5-11.3-5.1-13.9z"/>
							<path id="&lt;Path&gt;" class="s60" d="m300.7 205.2l-6.1-0.8c0 2.9-1.6 0.5-2 3.3-0.4 2.7-1 11.5 0.8 13.4 2.5 2.8 5.3 3.4 6.5-1.4 1.1-4.8 0.8-10.3 0.8-14.5z"/>
							<g id="&lt;Group&gt;">
								<path id="&lt;Path&gt;" class="s52" d="m347.1 211.5c-0.3 0.2-0.6 0.7-0.8 1.4-1.3 4-1.7 14.2-2.6 17.5-1.2 4.3-2.3 8.8-3.5 13.3q-0.8 2.7-1.6 5.3c-1.8 5.9-2.2 8.5 0.8 14.3 1.7 3.5 6.9 13.4 1.6 15.8-22.4 10.4-51.4-31.9-71.3-36.8 7.2-2.6 21-1.7 24.2-12.2 1.7-5.6 4-12.4 4-19.8 0-3.9-0.4-6.7-1.3-10l38.7 9z"/>
								<path id="&lt;Path&gt;" class="s61" d="m346.8 211.1c-1.3 4-1.7 14.2-2.6 17.5-1.2 4.3-2.3 8.9-3.5 13.3-30 3.7-45.1-40-44.3-46.1l39.4 11.7z"/>
							</g>
							<path id="&lt;Path&gt;" class="s52" d="m363.3 175.3c-1.5-5.6 0.4-12.4-0.9-18.2-5.2-22.8-24.2-26-24.2-26-6.3-2-15.7-1.1-22.1 0.1-26.2 5.2-33.8 29-24 52.2 7.2 17.1 4.4 37.7 31.9 49 5.6 2.2 16.5 5 23.9 3.3 8.1-2 9.4-8.5 11.9-13.2 5.4-9.9 7.2-20.3 7.3-30.5 0.1-6.8-2.2-10.7-3.8-16.7z"/>
							<g id="&lt;Group&gt;">
								<path id="&lt;Path&gt;" class="s61" d="m331.1 190.4c-0.5 0-1.9-0.6-2.4-0.6-4.6-0.1-8-1.1-10.9-1.8-2.4-0.6-4.1-0.4-4.1-0.4 1.3-0.5 3.1-2.5 4.6-2.8 4.2-1 8.8-0.8 11.7 2.5 0.4 0.4 0.8 2.6 1.1 3.1z"/>
								<path id="&lt;Path&gt;" class="s16" d="m330.7 190.3q-0.7 0-1.3 0-1.4 0-2.8-0.1c-3.5-0.3-6.7-0.9-9-1.5q-1.1-0.2-1.9-0.4c-1.3-0.4-2-0.7-2-0.7q1.1-0.4 2.4-0.8 0.9-0.3 1.8-0.5c2.7-0.6 5.5-0.8 7.9 0 1.5 0.5 2.8 1.3 3.9 2.5q0.5 0.7 1 1.5z"/>
								<path id="&lt;Path&gt;" class="s62" d="m326.7 189.9l-0.1 0.3c-3.5-0.3-6.7-0.9-9-1.5q-1.1-0.2-1.9-0.4 0.1-0.4 0.2-0.9 0.1-0.3 0.2-0.6 0.9-0.3 1.8-0.5c2.7-0.6 5.5-0.8 7.9 0 0.4 0.6 1 3.1 0.9 3.6z"/>
								<path id="&lt;Path&gt;" class="s16" d="m320.5 188c-0.1 0.3-0.5 0.5-0.8 0.4-0.4-0.1-0.7-0.4-0.6-0.7 0.1-0.4 0.5-0.6 0.8-0.5 0.4 0.1 0.6 0.4 0.6 0.8z"/>
							</g>
							<g id="&lt;Group&gt;">
								<path id="&lt;Path&gt;" class="s61" d="m363.8 182.4c-0.3 0.2-1.7 0.3-2 0.5-3.3 2.1-6.3 2.8-8.8 3.5-2 0.6-3.2 1.6-3.2 1.6 0.8-1.1 1.1-3.6 2-4.6 2.7-2.8 6.1-4.8 9.8-3.2 0.4 0.2 1.7 1.9 2.2 2.2z"/>
								<path id="&lt;Path&gt;" class="s16" d="m363.5 182.5q-0.5 0.3-1 0.6-1 0.6-2 1.1c-2.7 1.5-5.3 2.4-7.3 3q-0.8 0.2-1.5 0.4c-1.2 0.3-1.9 0.4-1.9 0.4q0.7-0.9 1.4-1.8 0.5-0.7 1.1-1.3c1.7-1.8 3.6-3.2 5.7-3.6 1.3-0.3 2.7-0.2 4 0.4q0.7 0.3 1.5 0.8z"/>
								<path id="&lt;Path&gt;" class="s62" d="m360.4 184l0.1 0.2c-2.7 1.5-5.3 2.4-7.3 3q-0.8 0.2-1.5 0.4-0.2-0.4-0.3-0.8-0.1-0.3-0.2-0.6 0.5-0.7 1.1-1.3c1.7-1.8 3.6-3.2 5.7-3.6 0.6 0.2 2.2 2.2 2.4 2.7z"/>
								<path id="&lt;Path&gt;" class="s16" d="m354.9 185.2c0.1 0.3 0 0.6-0.3 0.7-0.3 0.1-0.7-0.1-0.8-0.4-0.1-0.3 0.1-0.6 0.4-0.7 0.3-0.1 0.6 0 0.7 0.4z"/>
							</g>
							<g id="&lt;Group&gt;">
								<path id="&lt;Path&gt;" class="s61" d="m349.7 203.2c-4.2-4.5-3.8-8.2-5.4-13.5-0.8 4.8 0.4 9 2.1 13.2-1.5 1-5.5 3.1-7 4 4.6 0.9 9.2-0.3 10.3-3.7z"/>
							</g>
							<path id="&lt;Path&gt;" class="s60" d="m329.9 176.4c0 0-5.4-1.4-14 0-3.3 0.5-5.8 2-7.6 4.6 4.3-2.9 25.7 3.3 21.6-4.6z"/>
							<path id="&lt;Path&gt;" class="s60" d="m346.9 174.6c0 0 6.4-2.4 12.2-2.1 3 0.1 5.3 1 7.4 3.3-4.2-2.2-21.7 7.3-19.6-1.2z"/>
							<path id="&lt;Path&gt;" class="s61" d="m332.7 212.1q0 0 0.3 0.1 0.2 0.1 0.7 0.3 0.4 0.1 1.1 0.3 0.7 0.3 1.5 0.5 0.8 0.2 1.7 0.4 0.9 0.2 1.9 0.3 0.6 0.1 1.1 0.2 0.5 0 1 0 1.1 0.1 2.2 0 1.1 0 2.1-0.2 1-0.2 2-0.5 0.9-0.3 1.8-0.7 0.8-0.3 1.5-0.8 0.6-0.4 1.2-0.8c0.3-0.2 0.6-0.5 0.9-0.7 0.4-0.4 0.7-0.6 0.7-0.6q0 0-0.1 0.2-0.1 0.2-0.4 0.6c-0.1 0.3-0.3 0.6-0.6 0.9q-0.2 0.3-0.5 0.6-0.2 0.2-0.5 0.5-0.4 0.3-0.7 0.6-0.4 0.3-0.8 0.6-0.8 0.5-1.9 0.9-1 0.5-2.2 0.7-1.2 0.3-2.4 0.3-1.2 0.1-2.4 0-1.2-0.1-2.3-0.4-1.1-0.2-2-0.6-1-0.3-1.8-0.7c-1-0.5-1.8-1-2.3-1.4q-0.4-0.3-0.6-0.4-0.2-0.2-0.2-0.2z"/>
							<path id="&lt;Path&gt;" class="s61" d="m342.8 221.9h0.3c1.7 0.6 4.5 0.9 6.5 0.8-1.5-2.6-4.8-2.5-6.8-0.8z"/>
							<path id="&lt;Path&gt;" class="s60" d="m311.2 138.1l-12 4.4c-7 3.5-11.6 13.6-13.5 21.1-1.5 5.5-4.3 19.3-1 26.6 4.4-1.4 8.3-4.4 10.5-0.4 1.5 2.6 2.7 13.3 5.4 12.7 1.3-5.5 2.1-10.7 1.5-16.7-0.6-5.6-2.7-11.6 1.2-16.7 1.6-2.1 3.2-2.8 3.9-5.5 0.6-2.7-0.3-5.9-0.4-8.7-0.2-4.6-1.1-15 4.4-16.8z"/>
							<g id="&lt;Group&gt;">
								<path id="&lt;Path&gt;" class="s52" d="m294.9 189c-5.4-4.1-9.6-1.7-10.9 2.4-1.3 3.9-0.6 7.9 1 11.3 3.4 6.7 13.6 12.4 17.7 7.1-1.1-9.3-3.5-17.3-7.8-20.8z"/>
								<path id="&lt;Path&gt;" class="s61" d="m298 201.5c-1.9 2-4.7-0.5-5-2.7-0.4-3 1.5-2.7-0.3-5.8-3-5.3-8.3-1.8-6.2 3 0.2-2.8 2.8-2.9 4.4-1-7.7 7.1 7.3 15.7 8.2 6.1z"/>
							</g>
							<g id="&lt;Group&gt;">
								<path id="&lt;Path&gt;" class="s63" d="m357.5 143.7l-0.3 0.7q-0.2-0.1-0.4-0.1c-0.9 3.3-3.1 6-5.9 8.2-4 3-8.2 5-12.3 7.9-3.2 2.3-5.9 4.5-8.4 7.2-1.2-3.6 0.6-7.9 3.3-10.4-8.6 0.7-17.2 9.2-19.7 17.3-3.2-4.6-0.8-12.3 1.3-16.9-5.2 1.1-9.5 9.1-11.5 13.4-2.6 5.8-1.2 14.5-1.7 20.6-2.1-2.3-5.4-8.5-6.9-11.3-1.1-2-1.8-4.1-2.4-6.1-1.3 2.1-3 4.5-5.5 7.2-0.1-0.9-0.5-1.6-0.6-2.6-1.9 2-5.6 9.2-5.7 9.2-0.2 0.2-1.2-7.4-1.4-10-1.1 0.9-2 2.5-2.6 3.7-0.2-3.1-0.2-6.6 0.3-9.7-1.2 0.3-2.7 1.1-3.8 1.7 0.7-3 4.1-6.9 5.7-9.6-2.2 1.7-4.7 3.1-7.3 4.1 2.1-11.2 4.6-17.5 11-26.1q0.4-0.6 0.9-1.1c4.8-5.9 11.8-11 18.4-14.7 7.5-4.1 21.4-7.6 30-6.6 9.8 1.1 22.4 7.4 25.1 17.7 0.5 2 0.7 4 0.4 6.3z"/>
								<g id="&lt;Group&gt;">
									<path id="&lt;Path&gt;" class="s64" d="m290.9 144.7q0 0 0 0 0 0 0 0 0.1-0.2 0 0z"/>
									<g id="&lt;Group&gt;">
										<path id="&lt;Path&gt;" class="s60" d="m357.5 143.7l-0.3 0.7q-0.2-0.1-0.4-0.1c-0.9 3.3-3.1 6-5.9 8.2-4 3-8.2 5-12.3 7.9-3.2 2.3-5.9 4.5-8.4 7.2-1.2-3.6 0.6-7.9 3.3-10.4-8.6 0.7-17.2 9.2-19.7 17.3-3.2-4.6-0.8-12.3 1.3-16.9-5.2 1.1-9.5 9.1-11.5 13.4-2.6 5.8-1.2 14.5-1.7 20.6-2.1-2.3-5.4-8.5-6.9-11.3-1.1-2-1.8-4.1-2.4-6.1-1.3 2.1-3 4.5-5.5 7.2-0.1-0.9-0.5-1.6-0.6-2.6-1.9 2-5.6 9.2-5.7 9.2-0.2 0.2-1.2-7.4-1.4-10-1.1 0.9-2 2.5-2.6 3.7-0.2-3.1-0.2-6.6 0.3-9.7-1.2 0.3-2.7 1.1-3.8 1.7 0.7-3 4.1-6.9 5.7-9.6-2.2 1.7-4.7 3.1-7.3 4.1 2.1-11.2 4.6-17.5 11-26.1q0.4-0.6 0.9-1.1c-0.5 3-0.7 6-0.8 8.5 1.3-2.7 5.4-3.8 8.1-4.8-3 3.4-3.4 10.5-2.4 14.6 1.2-1.6 3.2-3.6 4.9-4.8 0.2 3.9 0.6 10 3.8 12.7-0.2-13.6 14.2-22.1 24.1-28.6-2 2.6-4.1 8.1-3.7 11.4 1-0.6 1.9-1.4 3-2.1-0.8 2.2 0.6 5.5 1.9 7.3 5.2-2.6 8.7-6.9 12.1-11.4-0.4 2.8 1.1 6.2 3.3 8 1.7-1.5 3.2-3.9 4.2-5.9 0.5 0.9 1 1.7 1.8 2.3 4.8-2.7 10.2-6 13.2-10.8 0.5 2 0.7 4 0.4 6.3z"/>
									</g>
								</g>
							</g>
						</g>
						<g id="&lt;Group&gt;">
							<path id="&lt;Compound Path&gt;" fill-rule="evenodd" class="s54" d="m318 200.8c-4.6 0.4-8.7-2.6-11.5-8.4-0.8-1.9-1.4-3.6-1.6-4.5-0.6-2.4-0.4-2.6-0.1-2.9 3-3.1 10.3-4.7 16.2-5.2 7.3-0.6 13.3 0.3 16.1 2.3 0.3 0.3 0.6 0.5 0.4 3.2-0.1 1.2-0.3 3-0.9 5-1.2 4.2-3.9 9.3-10.1 9.8q0 0 0 0h-0.2zm-11.5-14.7c0.3 1.6 1.9 7.3 5.4 10.6q2.7 2.4 5.9 2.1h0.2l8.3-0.7c2.4-0.2 4.5-1.3 6-3.4 2.9-3.8 3.3-9.6 3.2-11.1-2.5-1.6-8.1-2.3-14.4-1.8-6.5 0.6-12.2 2.3-14.6 4.3z"/>
							<path id="&lt;Compound Path&gt;" fill-rule="evenodd" class="s54" d="m354.8 197c-3.9 0.4-7.4-2.7-9.8-8.5-0.8-1.9-1.2-3.6-1.4-4.5-0.6-2.4-0.4-2.7-0.2-3 2.5-3 8.7-4.5 13.7-4.9 6.2-0.5 11.3 0.4 13.7 2.5 0.2 0.3 0.5 0.5 0.4 3.2-0.1 1.1-0.2 3-0.7 5-0.9 4.2-3.2 9.2-8.5 9.7q0 0 0 0h-0.2zm-9.8-14.9c0.2 1.6 1.6 7.4 4.6 10.6q2.3 2.5 5.1 2.2h0.1l7-0.5q3.2-0.3 5.1-3.3c2.4-3.8 2.7-9.6 2.6-11.1-2.2-1.7-6.9-2.4-12.2-2-5.5 0.5-10.4 2.1-12.3 4.1z"/>
							<path id="&lt;Path&gt;" class="s54" d="m336.1 183.6l-1.2-1.9c3.4-2.1 7.1-2.5 10.4-1.3l-0.8 2.2c-2.7-1.1-5.6-0.7-8.4 1z"/>
						</g>
					</g>
				</g>
			</g>
			<g id="&lt;Group&gt;">
				<g id="&lt;Group&gt;">
					<path id="&lt;Path&gt;" class="s65" d="m225.7 323.5c5.6-4.8 13.6-2.8 20.3-3.2l1.6-68.7c-23.6 18.5-27.7 43.2-21.9 71.9z"/>
					<g id="&lt;Group&gt;">
						<path id="&lt;Path&gt;" class="s65" d="m219.2 292.1c-4.6-7.3-10.3-1.9-16.4 1.7-9.1 5.4-11 7.3-11.4 17.1-0.2 5.4-0.7 19.5-5.8 21.8l6-0.7c3.3-7.2 3-15.9 6-22.6 2.4-5.4 10.1-8.6 15.8-11.3 4.9 3.2 6.7 10.2 6.9 15.8 1.5-4.6 1.8-17.1-1.1-21.8z"/>
						<g id="&lt;Group&gt;">
							<path id="&lt;Path&gt;" class="s65" d="m282.1 446c-1.3 9.9-9 18.9-15.1 27-11.4 15.2-23.5 45.3-43.9 48.4-58 8.7-52.7-76.4-58.3-113.2-1.8-11.7-4.1-23.3 2.7-34 6.3-9.8 9.1-18.4 12.4-29.1 3.8-11.9 9.3-19.7 19-27.8q0.5-0.4 1-0.7c4.6-3.9 9.1-7.8 13.8-11.3 4.9-3.6 11.4-5.9 15.8-9.3l7.8-10.6c1.1 9 10.4 19.1 14.4 27.7 4.8 10.4 10.7 20.2 16.4 30.4 6.1 10.9 4.5 21.3 3.4 33.6-0.3 3-0.5 6-0.5 9.2-0.2 8.7 0.6 17.8 3.1 25.8 3.3 10.4 9.6 22.5 8 33.9z"/>
							<path id="&lt;Path&gt;" class="s66" d="m282.1 446c-1.3 9.9-9 18.9-15.1 27-11.4 15.2-23.5 45.3-43.9 48.4-12.2 1.8-21.7-0.5-29-5.7-27.2-19.4-24.9-78.5-29.3-107.5-1.8-11.7-4.1-23.3 2.7-34 6.3-9.8 9.1-18.4 12.4-29.1 3.8-11.9 9.3-19.7 19-27.8q0.5-0.4 1-0.7c-1.8 12.5 0 26 3.3 38.3 3 11 6.4 22 8.6 32.8 1.5 7.7 1.3 16.2 4.3 23.4 13.5-0.1 25.8 5.2 37.4-4.3 7.2-5.9 12.4-13.2 17.5-20.5-0.2 8.7 0.6 17.8 3.1 25.8 1.6 5 3.9 10.4 5.6 15.9 1.9 6 3.2 12.1 2.4 18z"/>
							<path id="&lt;Path&gt;" class="s65" d="m282.1 446c-1.3 9.9-9 18.9-15.1 27-11.4 15.2-23.5 45.3-43.9 48.4-12.2 1.8-21.7-0.5-29-5.7-0.5-5.1-0.6-10.2-0.8-15.7-0.6-11.2 0.5-22.9 5-33.3 2.2-5.3 5.5-9.7 9.2-14.3 2.6-3.2 6.2-12.2 9.4-14.1 3.4-2.1 13.4 0.7 17.6 0.6 6.9-0.1 12.4-1.7 19-3.4 7.9-1.9 17.9-4 26.2-7.5 1.9 6 3.2 12.1 2.4 18z"/>
						</g>
					</g>
				</g>
				<g id="&lt;Group&gt;">
					<path id="&lt;Path&gt;" class="s65" d="m290.7 261.9c5.4 11.2 7.1 24.9 4.9 37-4.3 23.8-25.1 123.2-35.6 134.5 0.7 3.8 11.2 1.5 15 1.5 14.7-21.4 44.9-97.8 38-163.9-1.5-14.8-25.3-33-33.2-31.8-7.9 1.1-19.8 5-19.8 5 8.5 0.8 26.9 10 30.7 17.7z"/>
				</g>
				<g id="&lt;Group&gt;">
					<path id="&lt;Path&gt;" class="s61" d="m402.3 365.8c-0.3 1.1-1 2.1-2.2 3.1l-5.8-0.7-4.5-0.5c-0.2-2.5 0.5-5 1.3-7.4 1-2.9 2.2-5.6 2.5-8.4 0.8 0.5 1.6 1 2.4 1.6 2.4 1.8 4.8 4.1 5.5 6.6 0.4 1.4 1.3 3.5 0.8 5.7z"/>
					<g id="&lt;Group&gt;">
						<g id="&lt;Group&gt;">
							<g id="&lt;Group&gt;">
								<path id="&lt;Path&gt;" class="s67" d="m391.7 328.3l-21.7 125.5c-0.4 2-2.3 3.4-4.3 3l-78.6-13.6c-2-0.4-3.4-2.3-3-4.3l21.8-125.5c0.3-2 2.2-3.3 4.2-3l78.6 13.7c2 0.3 3.4 2.2 3 4.2z"/>
								<path id="&lt;Path&gt;" class="s68" d="m391.7 328.3l-21.7 125.5c-0.4 2-2.3 3.4-4.3 3l-75.1-13c-2-0.4-3.3-2.3-3-4.3l21.8-125.5c0.3-2 2.3-3.3 4.3-3l75 13.1c2 0.3 3.4 2.2 3 4.2z"/>
							</g>
							<path id="&lt;Path&gt;" class="s67" d="m364.4 362c-0.3 2-2.3 3.4-4.3 3l-29-5c-2-0.4-3.3-2.3-3-4.3l1.6-8.8c0.3-2 2.2-3.4 4.2-3l29 5c2 0.4 3.4 2.3 3 4.3z"/>
						</g>
						<g id="&lt;Group&gt;">
							<g id="&lt;Group&gt;">
								<path id="&lt;Path&gt;" class="s69" d="m402.2 338.2l-33.5 122.9c-0.6 1.9-2.6 3.1-4.6 2.5l-76.9-20.9c-2-0.6-3.2-2.6-2.6-4.6l33.5-122.9c0.5-1.9 2.5-3.1 4.5-2.5l77 20.9c1.9 0.6 3.1 2.6 2.6 4.6z"/>
								<path id="&lt;Path&gt;" class="s41" d="m402.2 338.2l-33.5 122.9c-0.6 1.9-2.6 3.1-4.6 2.5l-73.5-20c-1.9-0.5-3.1-2.6-2.6-4.5l33.5-122.9c0.6-2 2.6-3.1 4.6-2.6l73.5 20c1.9 0.6 3.1 2.6 2.6 4.6z"/>
							</g>
							<path id="&lt;Path&gt;" class="s69" d="m371.8 369.1c-0.6 2-2.6 3.2-4.5 2.6l-28.4-7.7c-2-0.6-3.2-2.6-2.6-4.5l2.3-8.7c0.6-1.9 2.6-3.1 4.6-2.6l28.3 7.8c2 0.5 3.2 2.5 2.6 4.5z"/>
						</g>
					</g>
					<g id="&lt;Group&gt;">
						<path id="&lt;Path&gt;" class="s52" d="m288.2 380q-0.1 1.9-0.2 3.5c-1 13.5-5.6 40.4-22.1 42.6-17 2.3-24.5-24.1-26.7-40.4-0.6-4.6-6.5-62-4.5-78.9l52.4 18c0.2 4.1 0.4 10 0.6 16.7 0.5 13 0.8 28.7 0.5 38.5z"/>
						<path id="&lt;Path&gt;" class="s52" d="m362.9 363c-23.7 23.5-59.2 9.5-88.7 19.3-10.4 3.5-32.3-18.4-35-6.2-1.2 5.5 3.6 37.1 5.6 41.7 6.8 15.2 28.2 17.3 50.7 6.8 18.7-8.7 51.1-22.1 67.4-33.3z"/>
						<g id="&lt;Group&gt;">
							<path id="&lt;Path&gt;" class="s61" d="m277 338.9l0.4 0.1q-0.2-0.8-0.5-1.6c0.1 0.5 0.1 1 0.1 1.5z"/>
							<path id="&lt;Path&gt;" class="s61" d="m288.2 380c-7.9 3.2-14.7 8.1-22.4 14.1 2.5-7.5 11.5-11.8 13.4-18 1.6-5.2 0.3-14.4 0-19.7-0.2-5.2-0.5-12.1-1.8-17.4l10.3 2.5c0.5 13 0.8 28.7 0.5 38.5z"/>
						</g>
						<g id="&lt;Group&gt;">
							<path id="&lt;Path&gt;" class="s52" d="m395.9 350.6c3.7-11-6.2-5.5-11.4-2.4-11.3 6.5-25.1 6.1-24.9 21l-7 5.2c-1.4 11.4 7.1 20.2 26.2 20.2 6.9 0 12.6-30.8 5-34.5 5.4-3.9 11-6.2 12.1-9.5z"/>
							<path id="&lt;Path&gt;" class="s52" d="m402 364.9c-0.1 0.9-0.7 1.8-1.8 3.3-0.8 1.3-0.9 0.8-0.9 2.3 0 0.7 0.6 2.6 0.7 3.4 0.5 3.1-1 5.4-4.5 7.5 1.6 2.9 1 6.8-3.7 8.4-0.3 2.2-2.2 3.5-4.9 4.3-6.8 2-18.8 0.3-22.3-1.7l11.6-34.4c1.2 1.7 10.9 0.7 13.5 0.9q0 0 0.1 0c1.4 0.1 3.1 0.1 4.7 0.3 2.7 0.3 5.3 1 6.6 3.2 0.6 1.1 0.9 1.8 0.9 2.5z"/>
							<path id="&lt;Path&gt;" class="s61" d="m402 364.9c-0.1 0.9-0.7 1.8-1.8 3.3-0.8 1.3-0.9 0.8-0.9 2.3 0 0.7 0.6 2.6 0.7 3.4 0.5 3.1-1 5.4-4.5 7.5 1.6 2.9 1 6.8-3.7 8.4-0.3 2.2-2.2 3.5-4.9 4.3 1.1-2 1.6-4.2 0.6-6.7 3.4-1.9 4.3-5.1 3.2-8.5 3.5-1.6 5.2-8.3 2.3-11.1q0.2-0.1 0.3-0.3c2.1-1.8 1.9-5.1 1.2-8.3 2.7 0.3 5.3 1 6.6 3.2 0.6 1.1 0.9 1.8 0.9 2.5z"/>
						</g>
						<g id="&lt;Group&gt;">
							<path id="&lt;Path&gt;" class="s58" d="m292.3 348.4c-0.5 4-1.2 7.9-2.1 11.7-6.7 1.4-13.4 2.4-20.2 2.9-11.7 0.8-23.7 0-35-3.2q-0.5-4.7-1-9.4c-1.4-16.9-2.1-34.3-1.3-51.1 0.5-10.7 1.9-23.6 5.6-33.3 2.6-6.5 11.6-22.3 21.7-20.6 8.5 1.4 23.5 11.1 26.5 17.4 3.6 7.5 5.7 22.1 6.2 30.7 1.1 17 1.9 37-0.4 54.9z"/>
							<path id="&lt;Path&gt;" class="s59" d="m292.3 348.4c-0.5 4-1.2 7.9-2.1 11.7-6.7 1.4-13.4 2.4-20.2 2.9-11.7 0.8-23.7 0-35-3.2q-0.5-4.7-1-9.4c8.6 2.3 20.6 2.2 29 1.9 10-0.4 20.1-0.3 29.3-3.9z"/>
						</g>
					</g>
				</g>
			</g>
		</g>
	</g>
</svg>